<?xml version="1.0" standalone="no"?>
<!DOCTYPE svg PUBLIC "-//W3C//DTD SVG 1.1//EN" "http://www.w3.org/Graphics/SVG/1.1/DTD/svg11.dtd" >
<svg xmlns="http://www.w3.org/2000/svg" xmlns:xlink="http://www.w3.org/1999/xlink" version="1.1">
<metadata>
Created by FontForge 20200314 at Mon Mar  7 19:32:42 2016
 By Unknown
Copyright (c) 2016 The Monotype Corporation. All rights reserved.
</metadata>
<defs>
<font id="ClassicGrotesqueW01-CnMd" horiz-adv-x="448" >
  <font-face 
    font-family="ClassicGrotesqueW01-CnMd"
    font-weight="500"
    font-stretch="condensed"
    units-per-em="1000"
    panose-1="2 11 6 6 4 5 4 2 2 3"
    ascent="800"
    descent="-200"
    x-height="494"
    cap-height="688"
    bbox="-100 -206 970 914"
    underline-thickness="50"
    underline-position="-125"
    unicode-range="U+000D-2122"
  />
<missing-glyph horiz-adv-x="500" 
d="M12 665h475v-665h-475v665zM88 618l162 -243l161 243h-323zM60 575v-484l161 242zM278 333l162 -243v485zM88 48h323l-161 242z" />
    <glyph glyph-name=".notdef" horiz-adv-x="500" 
d="M12 665h475v-665h-475v665zM88 618l162 -243l161 243h-323zM60 575v-484l161 242zM278 333l162 -243v485zM88 48h323l-161 242z" />
    <glyph glyph-name="glyph1" horiz-adv-x="0" 
 />
    <glyph glyph-name="glyph1" horiz-adv-x="0" 
 />
    <glyph glyph-name="uni000D" unicode="&#xd;" horiz-adv-x="180" 
 />
    <glyph glyph-name="space" unicode=" " horiz-adv-x="180" 
 />
    <glyph glyph-name="exclam" unicode="!" horiz-adv-x="250" 
d="M72 688h106l-21 -474h-64zM75 136h100v-136h-100v136z" />
    <glyph glyph-name="quotedbl" unicode="&#x22;" horiz-adv-x="382" 
d="M62 688h100l-18 -246h-64zM220 688h100l-18 -246h-64z" />
    <glyph glyph-name="numbersign" unicode="#" horiz-adv-x="536" 
d="M302 183h-122l-32 -190h-46l30 190h-94v75h106l30 177h-96v75h108l32 190h48l-32 -190h122l32 190h46l-30 -190h94v-75h-106l-30 -177h96v-75h-108l-32 -190h-48zM222 435l-30 -177h122l30 177h-122z" />
    <glyph glyph-name="dollar" unicode="$" 
d="M196 46q-41 5 -73.5 26.5t-54 60t-26.5 90.5l83 27q7 -65 26 -91.5t46 -35.5v208l-13 7q-36 19 -63 40.5t-46 55t-19 78.5q0 46 20 79t52 50.5t68 20.5v54h61v-56q30 -3 58.5 -19.5t49.5 -46t29 -70.5l-76 -32q-8 45 -25 65.5t-38 28.5v-175l16 -9q45 -25 73 -46.5
t47 -54.5t19 -81q0 -49 -20.5 -87t-55.5 -60t-77 -27v-80h-61v80zM158.5 567.5q-16.5 -16.5 -16.5 -49.5q0 -32 16 -51t39 -31v152q-22 -4 -38.5 -20.5zM255 121q15 2 30 11t26 28t11 48q0 38 -16.5 58.5t-29.5 28t-15 9.5l-6 4v-187z" />
    <glyph glyph-name="percent" unicode="%" horiz-adv-x="710" 
d="M70 329q-34 57 -34 157t34 157t98 57t98 -57t34 -157t-34 -157t-98 -57t-98 57zM470 688h72l-302 -689h-72zM206 371q13 36 13 115t-13 115t-38 36t-38 -36t-13 -115t13 -115t38 -36t38 36zM444 45q-34 57 -34 157t34 157t98 57t98 -57t34 -157t-34 -157t-98 -57t-98 57z
M580 87q13 36 13 115t-13 115t-38 36t-38 -36t-13 -115t13 -115t38 -36t38 36z" />
    <glyph glyph-name="ampersand" unicode="&#x26;" horiz-adv-x="555" 
d="M524 7q-11 -7 -31.5 -13t-47.5 -6q-69 0 -98 46l-5 8q-1 -1 -26.5 -27.5t-103.5 -26.5q-49 0 -89.5 22t-64.5 66t-24 108q0 59 19 100.5t43 65t54 43.5l29 20l-3 7q-9 21 -19.5 57t-10.5 75q0 40 16 73.5t48.5 54t81.5 20.5q48 0 78 -19t43 -48.5t13 -62.5
q0 -45 -26 -80.5t-83 -75.5l-29 -20l81 -198h2q6 6 17.5 34t22 64t15.5 64l74 -30q-9 -57 -33.5 -117t-56.5 -99l7 -14q8 -16 19.5 -23.5t28.5 -7.5q12 0 23.5 3t18.5 6.5l9 4.5l22 -65q-3 -2 -14 -9zM346 572q0 28 -14.5 44t-37.5 16t-38.5 -17.5t-15.5 -56.5
q0 -26 6.5 -50.5t13.5 -41.5l4 -10h2l24 19q56 44 56 97zM201 351l-20 -17q-19 -17 -34 -51t-15 -82q0 -63 25 -96t68 -33q23 0 41 8.5t28 19t10 12.5l-101 239h-2z" />
    <glyph glyph-name="quotesingle" unicode="'" horiz-adv-x="224" 
d="M62 688h100l-18 -246h-64z" />
    <glyph glyph-name="parenleft" unicode="(" horiz-adv-x="294" 
d="M161 -102.5q-43 63.5 -76 161.5t-33 219t33 219t76 161.5t81 98.5l40 -33q-30 -33 -62 -96t-54 -153.5t-22 -196.5t22 -196.5t54 -153.5t62 -96l-40 -33q-38 35 -81 98.5z" />
    <glyph glyph-name="parenright" unicode=")" horiz-adv-x="294" 
d="M74 -72q32 63 54 153.5t22 196.5t-22 196.5t-54 153.5t-62 96l40 33q38 -35 81 -98.5t76 -161.5t33 -219t-33 -219t-76 -161.5t-81 -98.5l-40 33q30 33 62 96z" />
    <glyph glyph-name="asterisk" unicode="*" horiz-adv-x="406" 
d="M203 510l-47 -113l-59 33l72 101l-115 -14v67l115 -14l-72 101l59 33l47 -113l47 113l59 -33l-72 -101l115 14v-67l-115 14l72 -101l-59 -33z" />
    <glyph glyph-name="plus" unicode="+" 
d="M190 242h-152v67h152v160h68v-160h152v-67h-152v-160h-68v160z" />
    <glyph glyph-name="comma" unicode="," horiz-adv-x="224" 
d="M89 -74q11 21 11 56v18h-38v136h100v-148q0 -52 -18 -85t-54 -55l-34 42q22 15 33 36z" />
    <glyph glyph-name="hyphen" unicode="-" horiz-adv-x="262" 
d="M39 289h197l-14 -77h-196z" />
    <glyph glyph-name="period" unicode="." horiz-adv-x="224" 
d="M62 136h100v-136h-100v136z" />
    <glyph glyph-name="slash" unicode="/" horiz-adv-x="348" 
d="M220 691h70l-162 -692h-70z" />
    <glyph glyph-name="zero" unicode="0" 
d="M83 81.5q-45 93.5 -45 262.5t45 262.5t141 93.5t141 -93.5t45 -262.5t-45 -262.5t-141 -93.5t-141 93.5zM287 135q19 68 19 209t-19 209.5t-63 68.5t-63 -68.5t-19 -209.5t19 -209t63 -68t63 68z" />
    <glyph glyph-name="one" unicode="1" 
d="M90 77h113v467h-2q-23 -21 -42.5 -34.5t-52.5 -28.5l-36 72q50 20 92.5 58.5t53.5 80.5h85v-615h113v-77h-324v77z" />
    <glyph glyph-name="two" unicode="2" 
d="M70 128.5q14 53.5 41 96.5t75 95l32 35q42 46 61.5 84t19.5 83q0 48 -20.5 74.5t-58.5 26.5q-42 0 -60 -31t-18 -80q0 -19 2.5 -35.5t4.5 -25t3 -10.5l-94 14q-1 2 -3 10.5t-4.5 24.5t-2.5 35q0 52 20 91.5t59 62t95 22.5t95.5 -22.5t60 -63.5t20.5 -95q0 -42 -11.5 -76
t-28 -58t-40.5 -52l-26 -31l-19 -22q-6 -8 -31.5 -37.5t-33.5 -41.5q-17 -25 -30.5 -58t-13.5 -58v-4h244v-82h-352q0 75 14 128.5z" />
    <glyph glyph-name="three" unicode="3" 
d="M339.5 352.5q24.5 -17.5 44.5 -56.5t20 -101q0 -63 -23 -110t-65 -72t-99 -25q-55 0 -94 23t-59 62.5t-20 89.5q0 19 2.5 35t3.5 20l90 20q-1 -4 -3.5 -20t-2.5 -38q0 -56 20 -85.5t59 -29.5q43 0 67 34.5t24 98.5q0 65 -25.5 100.5t-74.5 35.5h-32v77h29q45 0 66 29.5
t21 81.5q0 50 -19 77.5t-55 27.5q-35 0 -52.5 -25.5t-17.5 -71.5q0 -16 1.5 -28t2.5 -15l-89 17q-1 4 -3 17t-2 29q0 44 19.5 78t56.5 53t87 19q51 0 89 -20.5t58 -59.5t20 -93q0 -51 -16.5 -83.5t-36 -47.5t-35.5 -20v-2q19 -4 43.5 -21.5z" />
    <glyph glyph-name="four" unicode="4" 
d="M262 149h-240v96l220 443h118v-456h72v-83h-72v-149h-98v149zM264.5 537q1.5 41 2.5 53h-2q-5 -14 -23 -58t-32 -72l-80 -162q-11 -21 -21.5 -40t-14.5 -25v-2q5 0 21 0.5t39 0.5h109v228q0 36 1.5 77z" />
    <glyph glyph-name="five" unicode="5" 
d="M141.5 196q-1.5 -10 -1.5 -28q0 -104 71 -104q46 0 70 42t24 123q0 80 -22.5 119t-59.5 39q-30 0 -50.5 -23t-28.5 -58l-86 17l39 365h292l-15 -83h-196l-16 -135q-2 -17 -4.5 -33t-3.5 -22h2q3 7 14.5 17.5t32 19t48.5 8.5q44 0 79 -24.5t55.5 -75t20.5 -125.5
q0 -79 -23 -134.5t-65.5 -84t-102.5 -28.5q-55 0 -92 23t-55 60t-18 80q0 14 1.5 25t2.5 14l90 18q-1 -2 -2.5 -12z" />
    <glyph glyph-name="six" unicode="6" 
d="M308 530q1 6 1 16q-1 36 -17 58t-49 22q-49 0 -76 -55q-14 -29 -22.5 -76.5t-8.5 -110.5h2q1 7 13.5 25t38.5 34t66 16q48 0 83.5 -26.5t54 -77t18.5 -119.5q0 -73 -21 -129t-62 -87.5t-99 -31.5q-188 0 -188 346q0 183 52 274.5t152 91.5q51 0 84 -21.5t48 -54t15 -66.5
q0 -7 -0.5 -11t-0.5 -5l-85 -20q0 2 1 8zM291 110q21 46 21 121q0 71 -19 112.5t-61 41.5q-43 0 -64.5 -46t-21.5 -121q0 -70 19.5 -112t61.5 -42q43 0 64 46z" />
    <glyph glyph-name="seven" unicode="7" 
d="M197 339q24 85 52 156.5t47 107.5v2h-260v83h362v-77q-24 -37 -52.5 -108.5t-50.5 -153.5q-22 -81 -38.5 -178.5t-21.5 -170.5h-101q15 169 63 339z" />
    <glyph glyph-name="eight" unicode="8" 
d="M351.5 348q22.5 -19 40.5 -57.5t18 -97.5q0 -64 -22.5 -110.5t-64.5 -70.5t-99 -24q-56 0 -98 24t-65 70.5t-23 110.5q0 59 18 97.5t40.5 57.5t42.5 26v2q-13 5 -31.5 19.5t-34 47t-15.5 82.5q0 56 21.5 95t59 59.5t85.5 20.5q49 0 86.5 -20t58.5 -59.5t21 -95.5
q0 -50 -15.5 -82.5t-34 -47t-31.5 -19.5v-2q20 -7 42.5 -26zM276.5 440q17.5 29 17.5 80q0 50 -17.5 79t-52.5 29t-52.5 -29t-17.5 -79q0 -51 17.5 -80t52.5 -29t52.5 29zM287.5 99.5q20.5 35.5 20.5 100.5q0 64 -20.5 100.5t-63.5 36.5q-42 0 -63 -36.5t-21 -100.5t21 -100
t63 -36q43 0 63.5 35.5z" />
    <glyph glyph-name="nine" unicode="9" 
d="M295.5 286.5q-12.5 -18.5 -39 -34.5t-65.5 -16q-46 0 -81 25.5t-54.5 75t-19.5 119.5q0 73 21.5 128t63.5 85.5t101 30.5q98 0 141 -85.5t43 -252.5q0 -191 -52 -282.5t-154 -91.5q-79 0 -112.5 47.5t-33.5 113.5l86 21q0 -34 3.5 -56t18 -37t44.5 -15q34 0 56.5 23
t35.5 78t13 149h-2q-1 -7 -13.5 -25.5zM278.5 359.5q21.5 45.5 21.5 120.5q0 66 -18.5 106.5t-59.5 40.5q-45 0 -65.5 -47t-20.5 -121q0 -145 76 -145q45 0 66.5 45.5z" />
    <glyph glyph-name="colon" unicode=":" horiz-adv-x="224" 
d="M62 494h100v-136h-100v136zM62 136h100v-136h-100v136z" />
    <glyph glyph-name="semicolon" unicode=";" horiz-adv-x="224" 
d="M62 494h100v-136h-100v136zM89 -74q11 21 11 56v18h-38v136h100v-148q0 -52 -18 -85t-54 -55l-34 42q22 15 33 36z" />
    <glyph glyph-name="less" unicode="&#x3c;" 
d="M38 309l372 197v-71l-304 -158v-3l304 -158v-71l-372 197v67z" />
    <glyph glyph-name="equal" unicode="=" 
d="M38 399h372v-67h-372v67zM38 219h372v-67h-372v67z" />
    <glyph glyph-name="greater" unicode="&#x3e;" 
d="M38 116l304 158v3l-304 158v71l372 -197v-67l-372 -197v71z" />
    <glyph glyph-name="question" unicode="?" horiz-adv-x="420" 
d="M160 236q-1 16 -1 33q1 30 10.5 50.5t29.5 49.5l37 53q19 28 30 54.5t11 60.5q0 41 -17.5 63t-51.5 22q-35 0 -53.5 -24t-18.5 -64q0 -19 3.5 -38t4.5 -25l-87 16q-2 5 -5.5 22t-3.5 38q0 41 17.5 75.5t53.5 56t90 21.5t91 -22t54.5 -58.5t17.5 -82.5q0 -87 -33 -125.5
t-34 -39.5l-13 -17q-31 -41 -41.5 -66.5t-11.5 -47.5l-1 -27h-76q-1 6 -2 22zM150 136h100v-136h-100v136z" />
    <glyph glyph-name="at" unicode="@" horiz-adv-x="812" 
d="M632.5 -129q-33.5 -22 -88 -40.5t-123.5 -18.5q-107 0 -188 51t-126 149t-45 235q0 140 46.5 243t128.5 157.5t186 54.5q101 0 175.5 -51t114 -139.5t39.5 -200.5q0 -93 -27 -163.5t-73.5 -109t-104.5 -38.5q-37 0 -59.5 14t-32 32t-10.5 30h-2q-2 -8 -15 -26.5t-36 -33
t-55 -14.5q-53 0 -83 49t-30 143q0 87 22.5 150t53.5 102q24 31 50.5 45.5t57.5 14.5q30 0 54 -14.5t33 -45.5h2l13 44h82l-56 -276q-11 -57 -11 -87q0 -23 8.5 -39.5t32.5 -16.5q28 0 54.5 27t43.5 80.5t17 128.5q0 97 -30 171.5t-87.5 116.5t-138.5 42q-85 0 -150 -47
t-101.5 -135.5t-36.5 -209.5q0 -118 35 -201t99 -125t151 -42q57 0 103.5 16t76.5 34.5t30 20.5l34 -52q0 -3 -33.5 -25zM460 415q-15 15 -37 15q-30 0 -51 -26q-12 -15 -26 -44t-24 -73t-10 -97q0 -56 12.5 -81t38.5 -25q28 0 49.5 27t31.5 76l35 183q-4 30 -19 45z" />
    <glyph glyph-name="A" unicode="A" horiz-adv-x="480" 
d="M333 177h-190l-41 -177h-100l172 688h132l172 -688h-104zM242.5 580.5q-2.5 18.5 -3.5 23.5h-2q-1 -5 -3.5 -23t-7.5 -41l-63 -275h150l-63 275q-5 22 -7.5 40.5z" />
    <glyph glyph-name="B" unicode="B" horiz-adv-x="512" 
d="M68 688h174q96 0 149 -39.5t53 -124.5q0 -76 -34 -107t-72 -38v-2q30 -3 60.5 -20t53 -56.5t22.5 -104.5q0 -101 -57.5 -148.5t-160.5 -47.5h-188v688zM298 421q21 8 32.5 29t11.5 59t-11.5 59t-32.5 29t-54 8h-76v-192h76q33 0 54 8zM313.5 94q27.5 10 43 37t15.5 76
t-15.5 76t-43 37t-69.5 10h-76v-246h76q42 0 69.5 10z" />
    <glyph glyph-name="C" unicode="C" horiz-adv-x="514" 
d="M458 113.5q-20 -55.5 -65.5 -90.5t-118.5 -35q-77 0 -129.5 41.5t-79.5 121t-27 193.5t28 193.5t81.5 121t130.5 41.5q72 0 116.5 -34t63.5 -84t19 -102l-92 -28q0 75 -24.5 120.5t-82.5 45.5q-136 0 -136 -274q0 -142 34 -207t98 -65q58 0 84 49t26 137l94 -26
q0 -63 -20 -118.5z" />
    <glyph glyph-name="D" unicode="D" horiz-adv-x="548" 
d="M68 688h176q143 0 204.5 -88.5t61.5 -255.5t-61.5 -255.5t-204.5 -88.5h-176v688zM339 110.5q37 26.5 52 82t15 151.5t-15 151.5t-52 82t-105 26.5h-66v-520h66q68 0 105 26.5z" />
    <glyph glyph-name="E" unicode="E" horiz-adv-x="446" 
d="M68 688h345l-13 -86h-232v-185h207v-86h-207v-245h242l12 -86h-354v688z" />
    <glyph glyph-name="F" unicode="F" horiz-adv-x="410" 
d="M68 688h330l-13 -86h-217v-199h192v-85h-192v-318h-100v688z" />
    <glyph glyph-name="G" unicode="G" horiz-adv-x="546" 
d="M271 309v85h219v-296q0 -5 -22.5 -33t-68 -52.5t-113.5 -24.5q-120 0 -184 89t-64 263q0 120 30 200.5t85.5 120t130.5 39.5q68 0 111.5 -29.5t62.5 -70t20 -76.5l-88 -34q-2 55 -27 92t-80 37q-141 0 -141 -276q0 -146 38 -209t108 -63q34 0 57 12t35 25.5t12 15.5v185
h-121z" />
    <glyph glyph-name="H" unicode="H" horiz-adv-x="558" 
d="M390 330h-222v-330h-100v688h100v-270h222v270h100v-688h-100v330z" />
    <glyph glyph-name="I" unicode="I" horiz-adv-x="240" 
d="M70 688h100v-688h-100v688z" />
    <glyph glyph-name="J" unicode="J" horiz-adv-x="412" 
d="M344 688v-534q0 -79 -39 -122.5t-122 -43.5t-121 43.5t-38 121.5q0 23 2.5 42.5t5.5 30.5t4 14l90 24q-1 -3 -4 -13.5t-5.5 -31t-2.5 -47.5q0 -53 14.5 -78.5t51.5 -25.5q36 0 50 26t14 84v510h100z" />
    <glyph glyph-name="K" unicode="K" horiz-adv-x="496" 
d="M230 338l-62 -84v-254h-100v688h100v-176q0 -44 -1.5 -81t-2.5 -47h2q6 10 31 47t56 81l127 176h108l-192 -263l202 -425h-112z" />
    <glyph glyph-name="L" unicode="L" horiz-adv-x="396" 
d="M68 688h100v-602h210l12 -86h-322v688z" />
    <glyph glyph-name="M" unicode="M" horiz-adv-x="702" 
d="M533 434q0 53 1 102t2 66h-3q-2 -9 -6.5 -34t-10.5 -52l-112 -516h-112l-112 516q-6 27 -10.5 52t-6.5 34h-3q1 -17 2 -66t1 -102v-434h-93v688h168l66 -316q16 -74 29 -156t17 -106h2q4 24 17 106t29 156l66 316h168v-688h-99v434z" />
    <glyph glyph-name="N" unicode="N" horiz-adv-x="558" 
d="M222 374q-18 44 -38 104.5t-26 79.5h-2q1 -21 2.5 -81.5t1.5 -126.5v-350h-92v688h130l150 -374q18 -44 34.5 -98.5t21.5 -71.5h2q-1 21 -4.5 88.5t-3.5 117.5v338h92v-688h-118z" />
    <glyph glyph-name="O" unicode="O" horiz-adv-x="552" 
d="M145 31.5q-53 43.5 -80 123.5t-27 189t27 189t80 123.5t131 43.5t131 -43.5t80 -123.5t27 -189t-27 -189t-80 -123.5t-131 -43.5t-131 43.5zM410 344q0 274 -134 274t-134 -274t134 -274t134 274z" />
    <glyph glyph-name="P" unicode="P" horiz-adv-x="492" 
d="M68 688h190q99 0 150.5 -49t51.5 -147t-51.5 -147t-150.5 -49h-90v-296h-100v688zM304.5 387.5q25.5 9.5 39.5 34t14 70.5t-14 70.5t-39.5 34t-66.5 9.5h-71v-228h71q41 0 66.5 9.5z" />
    <glyph glyph-name="Q" unicode="Q" horiz-adv-x="552" 
d="M373.5 -65q-20.5 30 -32.5 62q-2 -1 -9.5 -3t-22.5 -4t-33 -2q-78 0 -131 43.5t-80 123.5t-27 189t27 189t80 123.5t131 43.5t131 -43.5t80 -123.5t27 -189q0 -96 -18 -159.5t-37.5 -93t-39.5 -49.5q10 -27 31 -56.5t42 -43.5l-76 -52q-22 15 -42.5 45zM385.5 156
q9.5 26 17 73t7.5 115q0 274 -134 274t-134 -274t134 -274q13 0 21.5 1.5t10.5 2.5q-10 26 -30.5 55t-41.5 43l74 50q14 -9 28 -26.5t24 -35t12 -26.5h2q0 -4 9.5 22z" />
    <glyph glyph-name="R" unicode="R" horiz-adv-x="516" 
d="M241 314h-73v-314h-100v688h194q98 0 150 -47.5t52 -139.5q0 -139 -119 -176l153 -325h-112zM312.5 405q23.5 9 36.5 32t13 64t-13 64t-36.5 32t-60.5 9h-84v-210h84q37 0 60.5 9z" />
    <glyph glyph-name="S" unicode="S" horiz-adv-x="458" 
d="M120 378q-30 24 -51.5 61.5t-21.5 88.5q0 54 23.5 93t64.5 60t91 21q49 0 88.5 -19.5t64 -55t31.5 -83.5l-78 -38q-9 60 -36.5 87t-68.5 27q-37 0 -59.5 -22t-22.5 -61q0 -37 23 -63t73 -55l42 -24q41 -24 72 -49t52 -65t21 -95q0 -59 -24.5 -104t-69 -70.5t-102.5 -25.5
t-101.5 25.5t-69.5 71.5t-33 107l86 32q8 -80 41 -117t81 -37q41 0 67.5 27.5t26.5 78.5q0 35 -13 59t-32.5 39.5t-50.5 33.5l-42 24q-42 24 -72 48z" />
    <glyph glyph-name="T" unicode="T" horiz-adv-x="416" 
d="M158 602h-155v86h416l-12 -86h-149v-602h-100v602z" />
    <glyph glyph-name="U" unicode="U" horiz-adv-x="558" 
d="M490 688v-456q0 -56 -8.5 -97.5t-27.5 -70.5q-49 -76 -175 -76t-175 76q-19 29 -27.5 70.5t-8.5 97.5v456h100v-474q0 -32 4 -54.5t15 -39.5q12 -20 34 -31t58 -11t58 11t34 31q11 17 15 39.5t4 54.5v474h100z" />
    <glyph glyph-name="V" unicode="V" horiz-adv-x="480" 
d="M10 688h104l90 -392q13 -55 23.5 -116.5t13.5 -79.5h2q3 18 14 79.5t23 116.5l90 392h100l-164 -688h-132z" />
    <glyph glyph-name="W" unicode="W" horiz-adv-x="720" 
d="M398 332q-11 64 -22.5 140.5t-14.5 99.5h-2q-3 -23 -14.5 -99.5t-22.5 -140.5l-58 -332h-118l-130 688h100l56 -312q10 -55 21.5 -141t14.5 -113h2q3 27 14.5 113t21.5 141l56 312h122l56 -312q10 -55 22 -141t15 -113h2q3 27 14 113t21 141l56 312h94l-130 -688h-118z
" />
    <glyph glyph-name="X" unicode="X" horiz-adv-x="472" 
d="M272 206q-12 28 -23 59.5t-14 40.5h-2q-3 -9 -14 -40.5t-23 -59.5l-88 -206h-100l158 361l-146 327h104l62 -148q20 -48 33.5 -81t17.5 -43h2q4 10 17.5 43t33.5 81l62 148h100l-146 -327l158 -361h-104z" />
    <glyph glyph-name="Y" unicode="Y" horiz-adv-x="454" 
d="M177 300l-169 388h104l62 -152q17 -43 33.5 -87t20.5 -57h2q4 13 20.5 57.5t33.5 86.5l62 152h100l-169 -388v-300h-100v300z" />
    <glyph glyph-name="Z" unicode="Z" horiz-adv-x="444" 
d="M24 83l240 449q15 29 25 46.5t13 22.5v2q-5 0 -20.5 -0.5t-36.5 -0.5h-211v86h376v-84l-241 -448q-15 -29 -25 -46.5t-13 -22.5v-2q5 0 20.5 0.5t36.5 0.5h232v-86h-396v83z" />
    <glyph glyph-name="bracketleft" unicode="[" horiz-adv-x="294" 
d="M60 746h198l-10 -62h-102v-812h102l10 -62h-198v936z" />
    <glyph glyph-name="backslash" unicode="\" horiz-adv-x="348" 
d="M58 691h70l162 -692h-70z" />
    <glyph glyph-name="bracketright" unicode="]" horiz-adv-x="294" 
d="M46 -128h102v812h-102l-10 62h198v-936h-198z" />
    <glyph glyph-name="asciicircum" unicode="^" 
d="M225 620h-2l-109 -264h-78l150 344h76l150 -344h-78z" />
    <glyph glyph-name="underscore" unicode="_" 
d="M-8 -111h464v-57h-464v57z" />
    <glyph glyph-name="grave" unicode="`" 
d="M148 700h100l52 -136h-74z" />
    <glyph glyph-name="a" unicode="a" horiz-adv-x="418" 
d="M399 2.5q-8 -4.5 -23 -8.5t-35 -4q-40 0 -58.5 18t-20.5 46h-2q-3 -11 -13.5 -26t-32 -27.5t-54.5 -12.5q-38 0 -67 18t-45 51.5t-16 80.5q0 45 14 74t32 44t40 26q43 21 117 44l25 8v42q0 34 -15 49t-46 15t-46 -14.5t-15 -47.5q0 -11 1 -19.5t2 -10.5l-88 14
q-1 2 -2 10t-1 20q0 55 42 84.5t113 29.5q58 0 88 -16.5t44 -37.5q11 -16 16 -40t5 -76v-242q0 -28 21 -28q6 0 12.5 1.5t8.5 2.5h2l7 -61q-2 -2 -10 -6.5zM259 267l-21 -7q-16 -5 -35 -13t-29 -14q-17 -10 -30.5 -29t-13.5 -58q0 -40 17 -60t47 -20t48.5 20.5t18.5 61.5
v119h-2z" />
    <glyph glyph-name="b" unicode="b" horiz-adv-x="462" 
d="M64 700h98v-212l-1 -50h2q0 3 11.5 20.5t36 32.5t61.5 15q50 0 84.5 -31t52 -88t17.5 -134q0 -82 -19.5 -141.5t-56 -91.5t-86.5 -32q-38 0 -61 16t-32.5 34t-9.5 22h-2l1 -42v-18h-96v700zM180 108.5q18 -42.5 62 -42.5q45 0 64.5 48.5t19.5 138.5q0 84 -18 130.5
t-62 46.5t-64 -43t-20 -109v-58q0 -69 18 -111.5z" />
    <glyph glyph-name="c" unicode="c" horiz-adv-x="414" 
d="M365 80q-17 -41 -54 -66.5t-93 -25.5q-88 0 -136 66.5t-48 189.5q0 82 22 141t64.5 90t101.5 31q56 0 91.5 -26t51 -64t15.5 -76l-86 -22q0 50 -16.5 82t-55.5 32q-88 0 -88 -188q0 -96 21 -139t63 -43q74 0 74 126l90 -20q0 -47 -17 -88z" />
    <glyph glyph-name="d" unicode="d" horiz-adv-x="462" 
d="M302 6l1 50h-2q0 -3 -12 -20.5t-37 -32.5t-62 -15q-50 0 -84.5 31t-52 88t-17.5 134q0 82 19.5 141.5t56 91.5t86.5 32q38 0 60.5 -16t31.5 -33.5t9 -22.5h2l-1 42v224h98v-700h-96v6zM282 387.5q-18 42.5 -62 42.5q-45 0 -64.5 -48.5t-19.5 -138.5q0 -84 18 -130.5
t62 -46.5t64 43t20 109v58q0 69 -18 111.5z" />
    <glyph glyph-name="e" unicode="e" horiz-adv-x="418" 
d="M132 218q0 -157 86 -157q38 0 57.5 28t21.5 72l83 -21q-1 -35 -17.5 -70t-52.5 -58.5t-92 -23.5q-89 0 -136.5 64.5t-47.5 189.5q0 86 22.5 145.5t63.5 89t98 29.5q83 0 125.5 -63t42.5 -183v-30h-254v-12zM273.5 401.5q-15.5 34.5 -56.5 34.5q-42 0 -62.5 -36t-22.5 -98
h157v2q0 63 -15.5 97.5z" />
    <glyph glyph-name="f" unicode="f" horiz-adv-x="276" 
d="M86 421h-70v73h70v92q0 65 26 94q30 34 88 34q32 0 55.5 -8.5t34.5 -15.5l-20 -64h-2q-9 6 -20.5 9t-21.5 3q-22 0 -32 -12q-6 -7 -8 -18.5t-2 -27.5v-86h90v-73h-90v-421h-98v421z" />
    <glyph glyph-name="g" unicode="g" horiz-adv-x="462" 
d="M301 57.5q1 14.5 1 18.5h-2q0 -3 -12 -20t-36.5 -31.5t-60.5 -14.5q-47 0 -82 28t-54 81.5t-19 128.5q0 76 19.5 134.5t56 91t86.5 32.5q37 0 60 -16t33 -34t10 -22h2l-1 42v18h96v-500q0 -57 -13.5 -96.5t-51.5 -63t-109 -23.5q-99 0 -133.5 41t-36.5 100l88 18
q1 -29 7 -48t23.5 -30.5t49.5 -11.5t49 11.5t23 31.5t6 51v50q0 19 1 33.5zM218 430q-44 0 -63 -44.5t-19 -133.5q0 -83 17.5 -124.5t60.5 -41.5t64.5 40.5t21.5 111.5v38q0 154 -82 154z" />
    <glyph glyph-name="h" unicode="h" horiz-adv-x="470" 
d="M310 334q0 27 -4 46t-17 31.5t-39 12.5q-42 0 -65 -34.5t-23 -93.5v-296h-98v700h98v-212l-1 -58h2q13 29 44 52.5t81 23.5q120 0 120 -158v-348h-98v334z" />
    <glyph glyph-name="i" unicode="i" horiz-adv-x="226" 
d="M64 701h98v-122h-98v122zM64 494h98v-494h-98v494z" />
    <glyph glyph-name="j" unicode="j" horiz-adv-x="226" 
d="M64 701h98v-122h-98v122zM-4 -110q2 -1 10 -3.5t18 -2.5q12 0 18.5 3t11.5 9q5 7 7.5 16.5t2.5 27.5v554h98v-542q0 -71 -24 -104q-28 -38 -84 -38q-42 0 -78 18l18 62h2z" />
    <glyph glyph-name="k" unicode="k" horiz-adv-x="420" 
d="M210 240l-48 -62v-178h-98v700h98v-310q0 -31 -1 -57t-1 -35h2q4 7 22 33.5t42 58.5l78 104h108l-137 -175l143 -319h-104z" />
    <glyph glyph-name="l" unicode="l" horiz-adv-x="230" 
d="M66 700h98v-700h-98v700z" />
    <glyph glyph-name="m" unicode="m" horiz-adv-x="696" 
d="M536 326q0 33 -3 52.5t-14.5 31.5t-36.5 12q-38 0 -61 -34.5t-23 -99.5v-288h-98v326q0 33 -3 52.5t-14.5 31.5t-36.5 12q-38 0 -61 -34.5t-23 -99.5v-288h-98v494h96v-6l-1 -58h2q14 30 42 53t77 23q52 0 75 -23.5t33 -54.5h2q14 31 44.5 54.5t79.5 23.5q30 0 52 -9
t38 -29t23 -51.5t7 -76.5v-340h-98v326z" />
    <glyph glyph-name="n" unicode="n" horiz-adv-x="470" 
d="M310 334q0 27 -4 46t-17 31.5t-39 12.5q-42 0 -65 -34.5t-23 -93.5v-296h-98v494h96v-6l-1 -58h2q13 28 44.5 52t82.5 24q120 0 120 -158v-348h-98v334z" />
    <glyph glyph-name="o" unicode="o" horiz-adv-x="440" 
d="M118.5 19q-41.5 31 -63 89.5t-21.5 138.5t21.5 138.5t63 89.5t101.5 31t101.5 -31t63 -89.5t21.5 -138.5t-21.5 -138.5t-63 -89.5t-101.5 -31t-101.5 31zM286 109.5q20 47.5 20 137.5t-19.5 137.5t-66.5 47.5t-66.5 -47.5t-19.5 -137.5t20 -137.5t66 -47.5t66 47.5z" />
    <glyph glyph-name="p" unicode="p" horiz-adv-x="462" 
d="M64 494h96v-6l-1 -50h2q0 3 12 20.5t37 32.5t62 15q50 0 84.5 -31t52 -88t17.5 -134q0 -82 -19.5 -141.5t-56 -91.5t-86.5 -32q-38 0 -60.5 16t-31.5 33.5t-9 22.5h-2l1 -42v-194h-98v670zM180 108.5q18 -42.5 62 -42.5q45 0 64.5 48.5t19.5 138.5q0 84 -18 130.5
t-62 46.5t-64 -43t-20 -109v-58q0 -69 18 -111.5z" />
    <glyph glyph-name="q" unicode="q" horiz-adv-x="462" 
d="M300 6l1 50h-2q0 -3 -11.5 -20.5t-36 -32.5t-61.5 -15q-50 0 -84.5 31t-52 88t-17.5 134q0 82 19.5 141.5t56 91.5t86.5 32q38 0 61 -16t32.5 -34t9.5 -22h2l-1 42v18h96v-670h-98v182zM282 387.5q-18 42.5 -62 42.5q-45 0 -64.5 -48.5t-19.5 -138.5q0 -84 18 -130.5
t62 -46.5t64 43t20 109v58q0 69 -18 111.5z" />
    <glyph glyph-name="r" unicode="r" horiz-adv-x="314" 
d="M64 494h96v-6l-1 -70h2q0 7 8.5 25t18.5 29q12 13 29.5 21.5t40.5 8.5q14 0 25 -3t17.5 -6.5t7.5 -4.5l-16 -92h-2q-3 3 -15 7.5t-27 4.5q-18 0 -29.5 -4.5t-22.5 -15.5q-34 -34 -34 -134v-254h-98v494z" />
    <glyph glyph-name="s" unicode="s" horiz-adv-x="370" 
d="M95 261.5q-24 16.5 -41.5 45.5t-17.5 70q0 42 19.5 71.5t52.5 44.5t74 15q60 0 98.5 -31t50.5 -87l-73 -29q-9 41 -29 59.5t-47 18.5q-25 0 -40.5 -14.5t-15.5 -38.5t16 -41t56 -37l32 -16q35 -18 60 -37t40.5 -48.5t15.5 -69.5q0 -45 -20 -79t-55.5 -52.5t-82.5 -18.5
q-70 0 -113 40t-51 112l81 22q6 -59 30.5 -81.5t54.5 -22.5q26 0 46 16t20 50q0 33 -19 52.5t-53 36.5l-32 16q-33 17 -57 33.5z" />
    <glyph glyph-name="t" unicode="t" horiz-adv-x="300" 
d="M270 1.5q-10 -4.5 -28.5 -9t-41.5 -4.5q-57 0 -86 32q-15 17 -21.5 41.5t-6.5 64.5v295h-70v73h70v136l98 22v-158h94v-73h-94v-295q0 -23 2.5 -32.5t7.5 -15.5q11 -12 32 -12q14 0 28 4t18 6h2l8 -68q-2 -2 -12 -6.5z" />
    <glyph glyph-name="u" unicode="u" horiz-adv-x="460" 
d="M300 6l1 58h-2q-37 -76 -119 -76q-58 0 -88 38q-16 20 -23 51.5t-7 76.5v340h98v-326q0 -33 3 -52.5t14 -31.5t35 -12q40 0 63 34.5t23 99.5v288h98v-494h-96v6z" />
    <glyph glyph-name="v" unicode="v" horiz-adv-x="382" 
d="M8 494h98l46 -192q10 -41 23 -110.5t17 -91.5h2q4 22 17 91.5t23 110.5l46 192h94l-126 -494h-114z" />
    <glyph glyph-name="w" unicode="w" horiz-adv-x="598" 
d="M318 260q-6 33 -11.5 75t-6.5 55h-2q-1 -13 -6.5 -55t-11.5 -75l-48 -260h-114l-102 494h97l39 -208q7 -39 16 -100t11 -80h2q2 19 11 80t16 100l39 208h110l39 -208q7 -39 16 -100t11 -80h2q2 19 10.5 80t16.5 100l39 208h91l-102 -494h-114z" />
    <glyph glyph-name="x" unicode="x" horiz-adv-x="374" 
d="M210 148q-7 19 -14 39.5t-10 28.5h-2q-3 -8 -10 -28.5t-14 -39.5l-60 -148h-94l112 262l-104 232h98l50 -118q11 -26 18 -44.5t8 -23.5h2q1 5 8 23.5t18 44.5l50 118h94l-104 -232l112 -262h-98z" />
    <glyph glyph-name="y" unicode="y" horiz-adv-x="382" 
d="M42 -100q7 -4 19.5 -7t22.5 -3q26 0 40 16q8 9 13 23.5t11 38.5l8 32h-20l-126 494h98l46 -192q10 -41 23 -110.5t17 -91.5h2q4 22 17 91.5t23 110.5l46 192h94l-132 -516q-11 -42 -25 -77t-27 -51q-33 -40 -96 -40q-22 0 -40 5t-28 10t-12 7l24 68h2z" />
    <glyph glyph-name="z" unicode="z" horiz-adv-x="350" 
d="M22 66l153 284q12 22 24 42.5t16 27.5v2q-3 0 -16.5 -0.5t-34.5 -0.5h-134v73h290v-67l-153 -283q-12 -23 -23.5 -42.5t-15.5 -26.5v-2l96 1h104v-74h-306v66z" />
    <glyph glyph-name="braceleft" unicode="{" horiz-adv-x="294" 
d="M112 -166q-38 31 -38 84q0 41 21 112l22 73q11 40 11 65q0 34 -21.5 56t-68.5 22h-10v64h10q47 0 68.5 22t21.5 56q0 25 -11 65l-22 73q-21 71 -21 112q0 53 38 84t124 35l26 1l6 -54l-20 -1q-35 -2 -53 -12t-23.5 -24t-5.5 -33q0 -20 3.5 -37.5t8 -33t6.5 -20.5l22 -73
q5 -19 8.5 -39t3.5 -36q0 -49 -30.5 -79.5t-81.5 -36.5v-2q51 -6 81.5 -36.5t30.5 -79.5q0 -16 -3.5 -36t-8.5 -39l-22 -73q-2 -5 -7 -23.5t-8 -35t-3 -32.5q0 -19 5.5 -33t23.5 -24t53 -12l20 -1l-6 -54l-26 1q-86 4 -124 35z" />
    <glyph glyph-name="bar" unicode="|" horiz-adv-x="254" 
d="M88 745h78v-937h-78v937z" />
    <glyph glyph-name="braceright" unicode="}" horiz-adv-x="294" 
d="M26 -148l20 1q35 2 53 12t23.5 24t5.5 33q0 20 -3.5 37.5t-8 33t-6.5 20.5l-22 73q-5 19 -8.5 39t-3.5 36q0 49 30.5 79.5t81.5 36.5v2q-51 6 -81.5 36.5t-30.5 79.5q0 16 3.5 36t8.5 39l22 73q2 5 7 23.5t8 35t3 32.5q0 19 -5.5 33t-23.5 24t-53 12l-20 1l6 54l26 -1
q86 -4 124 -35t38 -84q0 -41 -21 -112l-22 -73q-11 -40 -11 -65q0 -34 21.5 -56t68.5 -22h10v-64h-10q-47 0 -68.5 -22t-21.5 -56q0 -25 11 -65l22 -73q21 -71 21 -112q0 -53 -38 -84t-124 -35l-26 -1z" />
    <glyph glyph-name="asciitilde" unicode="~" 
d="M294 205q-29 0 -48.5 11t-38.5 32q-16 18 -27 25.5t-29 7.5q-22 0 -38 -14t-29 -50l-52 32q36 100 122 100q29 0 48.5 -11t38.5 -32q16 -18 27.5 -25.5t29.5 -7.5q21 0 37 14.5t29 49.5l52 -32q-36 -100 -122 -100z" />
    <glyph glyph-name="uni00A0" unicode="&#xa0;" horiz-adv-x="180" 
 />
    <glyph glyph-name="exclamdown" unicode="&#xa1;" horiz-adv-x="250" 
d="M75 494h100v-136h-100v136zM93 280h64l21 -474h-106z" />
    <glyph glyph-name="cent" unicode="&#xa2;" 
d="M189 91q-59 14 -97 74.5t-38 175.5q0 122 44 187.5t120 73.5l4 79h61l-5 -81q43 -7 71 -31.5t40.5 -58.5t12.5 -71l-76 -20q0 44 -11.5 76t-40.5 37l-21 -379q38 1 55 35.5t17 94.5l77 -17q0 -47 -15.5 -86.5t-50 -65t-86.5 -28.5l-5 -91h-61zM160 477.5
q-20 -47.5 -20 -138.5q0 -82 15.5 -121.5t39.5 -55.5l21 372q-36 -9 -56 -56.5z" />
    <glyph glyph-name="sterling" unicode="&#xa3;" 
d="M157.5 6.5q-24.5 -16.5 -55.5 -16.5q-24 0 -44.5 11t-33 32.5t-12.5 52.5t12.5 52.5t33.5 32.5t45 11q18 0 31.5 -5.5t20.5 -11t9 -7.5h2q1 4 2.5 20t1.5 32q0 32 -6.5 62t-16.5 60l-3 10h-96v67h79l-3 10q-5 18 -11.5 51t-6.5 65q0 44 15 81t49 60.5t88 23.5
q49 0 80.5 -19.5t45.5 -51t14 -67.5q0 -15 -1 -26t-2 -14l-82 -18q1 2 2 11t1 23q0 39 -12.5 65.5t-45.5 26.5q-58 0 -58 -96q0 -35 6.5 -67.5t11.5 -47.5l3 -10h133v-67h-116l3 -10q5 -15 10.5 -49t5.5 -66q0 -52 -19 -103l6 -6q20 -20 36 -30.5t36 -10.5q22 0 33 16t11 48
q0 17 -2.5 30.5t-5 21.5t-3.5 10l74 -15q1 -2 3.5 -10.5t5 -23t2.5 -32.5q0 -59 -30 -91.5t-81 -32.5q-63 0 -111 48l-12 12q-18 -25 -42.5 -41.5zM127 116q-11 8 -25 8q-15 0 -23.5 -10t-8.5 -28t8.5 -29t23.5 -11t27.5 12.5t20.5 33.5q-12 16 -23 24z" />
    <glyph glyph-name="currency" unicode="&#xa4;" 
d="M298 192q-2 -2 -12 -7t-26 -10t-36 -5t-36 5t-26 10t-12 7l-53 -55l-48 46l55 57q-2 3 -7 13t-10 28.5t-5 40.5t5 40.5t10 28.5t7 13l-55 57l48 46l53 -55q2 2 12 7t26 10t36 5t36 -5t26 -10t12 -7l53 55l48 -46l-55 -57q2 -3 7 -13t10 -28.5t5 -40.5t-5 -40.5t-10 -28.5
t-7 -13l55 -57l-48 -46zM280.5 258.5q21.5 24.5 21.5 63.5t-21.5 63.5t-56.5 24.5t-56.5 -24.5t-21.5 -63.5t21.5 -63.5t56.5 -24.5t56.5 24.5z" />
    <glyph glyph-name="yen" unicode="&#xa5;" 
d="M176 185h-124v67h124v54l-11 31h-113v67h85l-113 284h102l80 -222q9 -24 13.5 -45t5.5 -27h2q1 6 5.5 27t13.5 45l80 222h98l-113 -284h85v-67h-113l-11 -31v-54h124v-67h-124v-185h-96v185z" />
    <glyph glyph-name="brokenbar" unicode="&#xa6;" horiz-adv-x="254" 
d="M88 745h78v-371h-78v371zM88 179h78v-371h-78v371z" />
    <glyph glyph-name="section" unicode="&#xa7;" 
d="M90 175.5q-30 39.5 -30 99.5q0 45 17.5 77.5t39 52t21.5 16.5q-65 57 -65 135q0 41 17.5 74t51.5 51.5t80 18.5q47 0 80.5 -19.5t51.5 -52t22 -71.5l-71 -30q-14 102 -82 102q-28 0 -45 -16.5t-17 -47.5q0 -33 19 -56.5t55 -47.5l52 -34q50 -33 79.5 -72.5t29.5 -97.5
q0 -46 -17.5 -78.5t-39.5 -51.5t-22 -16q25 -21 47 -57t22 -86q0 -43 -18.5 -80t-55.5 -59.5t-89 -22.5q-54 0 -92 24t-58 64.5t-21 90.5l77 27q1 -43 14 -73t34.5 -44.5t48.5 -14.5q32 0 51.5 21t19.5 59q0 35 -18 59.5t-59 51.5l-52 34q-48 31 -78 70.5zM284.5 158.5
q10.5 10.5 20 30.5t9.5 48q0 38 -17.5 63.5t-45.5 44.5l-65 42q-5 -3 -15.5 -13.5t-20 -30.5t-9.5 -48q0 -38 17.5 -63.5t45.5 -44.5l65 -42q5 3 15.5 13.5z" />
    <glyph glyph-name="dieresis" unicode="&#xa8;" 
d="M122 700h72v-136h-72v136zM254 700h72v-136h-72v136z" />
    <glyph glyph-name="copyright" unicode="&#xa9;" horiz-adv-x="704" 
d="M196.5 30q-68.5 46 -107.5 129t-39 191t39 191t107.5 129t155.5 46t155.5 -46t107.5 -129t39 -191t-39 -191t-107.5 -129t-155.5 -46t-155.5 46zM481 75q56 39 87.5 110t31.5 165t-31.5 165t-87.5 110t-129 39t-129 -39t-87.5 -110t-31.5 -165t31.5 -165t87.5 -110
t129 -39t129 39zM455.5 173q-30.5 -47 -101.5 -47q-51 0 -86.5 26.5t-53.5 76.5t-18 118q0 70 19 121t55 78t86 27q69 0 98.5 -44.5t32.5 -102.5l-67 -18q-1 25 -4.5 46.5t-18 39.5t-42.5 18q-40 0 -60 -42.5t-20 -122.5q0 -81 18.5 -121t60.5 -40t55 35t14 80l67 -17
q-4 -64 -34.5 -111z" />
    <glyph glyph-name="ordfeminine" unicode="&#xaa;" horiz-adv-x="336" 
d="M300.5 370.5q-6.5 -3.5 -18.5 -6.5t-27 -3q-16 0 -25.5 3t-16.5 8q-8 5 -12.5 14t-5.5 19h-2q-6 -16 -23.5 -30.5t-49.5 -14.5q-39 0 -63.5 25.5t-24.5 73.5q0 45 18 66t44 32q19 9 66 22l33 11v22q0 19 -8.5 28.5t-29.5 9.5q-22 0 -31.5 -12t-11.5 -42l-68 12
q2 49 28.5 71.5t84.5 22.5q59 0 87 -25t28 -83v-157q0 -20 15 -20q5 0 8.5 1t4.5 2h2l7 -45q-2 -1 -8.5 -4.5zM192 542l-30 -10q-18 -6 -28 -12t-16 -18t-6 -33q0 -52 38 -52q20 0 32 13t12 38v74h-2zM34 306h268v-49h-268v49z" />
    <glyph glyph-name="guillemotleft" unicode="&#xab;" horiz-adv-x="382" 
d="M78.5 141.5q-23.5 62.5 -50.5 104.5q27 42 50.5 104.5t33.5 112.5l70 -19q-9 -46 -31 -106.5t-41 -90.5v-2q19 -30 41 -90.5t31 -106.5l-70 -19q-10 50 -33.5 112.5zM236.5 141.5q-23.5 62.5 -50.5 104.5q27 42 50.5 104.5t33.5 112.5l70 -19q-9 -46 -31 -106.5
t-41 -90.5v-2q19 -30 41 -90.5t31 -106.5l-70 -19q-10 50 -33.5 112.5z" />
    <glyph glyph-name="logicalnot" unicode="&#xac;" 
d="M340 271h-304v67h372v-227h-68v160z" />
    <glyph glyph-name="uni00AD" unicode="&#xad;" horiz-adv-x="262" 
d="M39 289h197l-14 -77h-196z" />
    <glyph glyph-name="registered" unicode="&#xae;" horiz-adv-x="626" 
d="M176 218q-61 40 -95.5 114t-34.5 172t34.5 172t95.5 114t137 40t137 -40t95.5 -114t34.5 -172t-34.5 -172t-95.5 -114t-137 -40t-137 40zM425.5 258.5q49.5 34.5 77 98t27.5 147.5t-27.5 147.5t-77 98t-112.5 34.5t-112.5 -34.5t-77 -98t-27.5 -147.5t27.5 -147.5t77 -98
t112.5 -34.5t112.5 34.5zM304 481h-34v-161h-64v368h116q54 0 83.5 -25.5t29.5 -77.5q0 -47 -20 -68.5t-45 -28.5l80 -168h-70zM337.5 535.5q14.5 3.5 22.5 15t8 34.5t-8 34.5t-22 14.5t-38 3h-31v-105h31q23 0 37.5 3.5z" />
    <glyph glyph-name="macron" unicode="&#xaf;" 
d="M96 663h256v-62h-256v62z" />
    <glyph glyph-name="degree" unicode="&#xb0;" horiz-adv-x="330" 
d="M98 424.5q-30 18.5 -47 52t-17 76.5t17 76.5t47 52t67 18.5t67 -18.5t47 -52t17 -76.5t-17 -76.5t-47 -52t-67 -18.5t-67 18.5zM215 488q19 24 19 65t-19 65t-50 24t-50 -24t-19 -65t19 -65t50 -24t50 24z" />
    <glyph glyph-name="plusminus" unicode="&#xb1;" 
d="M190 267h-152v67h152v153h68v-153h152v-67h-152v-153h-68v153zM38 67h372v-67h-372v67z" />
    <glyph glyph-name="uni00B2" unicode="&#xb2;" horiz-adv-x="358" 
d="M91 612q15 24 32.5 42t21.5 22l15 16q6 6 25 26t26.5 36t7.5 34q0 25 -11.5 39t-33.5 14q-46 0 -46 -61q0 -15 2.5 -25.5t3.5 -13.5l-74 10q-1 3 -3.5 13.5t-2.5 26.5q0 49 32 79t88 30q37 0 65.5 -14t43.5 -39t15 -58q0 -37 -16.5 -63.5t-33.5 -43.5t-22 -23l-15 -16
q-3 -3 -19.5 -20t-29 -36t-12.5 -32v-2h156v-69h-249q0 74 34 128z" />
    <glyph glyph-name="uni00B3" unicode="&#xb3;" horiz-adv-x="358" 
d="M281.5 671q22.5 -23 22.5 -73q0 -38 -16 -66.5t-45 -44t-68 -15.5q-38 0 -65.5 14.5t-41.5 39.5t-14 57q0 10 1 17t2 9l72 15q-1 -2 -2 -8.5t-1 -19.5q0 -34 12 -49.5t35 -15.5q24 0 37.5 16.5t13.5 52.5q0 72 -57 72h-19v57h18q48 0 48 59q0 27 -10.5 41.5t-31.5 14.5
t-32 -14t-11 -39q0 -11 1.5 -19t2.5 -10l-68 10q-1 2 -2.5 11t-1.5 20q0 27 12.5 49t37.5 35t62 13t64 -13.5t41 -38t14 -56.5q0 -42 -19.5 -62t-39.5 -28v-2q26 -6 48.5 -29z" />
    <glyph glyph-name="acute" unicode="&#xb4;" 
d="M200 700h100l-78 -136h-74z" />
    <glyph glyph-name="uni00B5" unicode="&#xb5;" horiz-adv-x="460" 
d="M300 6l1 58h-2q-14 -30 -41.5 -53t-75.5 -23q-8 0 -13.5 1t-6.5 1h-2v-180h-98v684h98v-326q0 -34 3 -53.5t14.5 -31t36.5 -11.5q38 0 61 34.5t23 99.5v288h98v-494h-96v6z" />
    <glyph glyph-name="paragraph" unicode="&#xb6;" 
d="M216 290q-52 0 -92.5 21.5t-64 66t-23.5 111.5t23.5 111.5t65.5 66t97 21.5h50v-878h-56v480zM328 688h56v-878h-56v878z" />
    <glyph glyph-name="periodcentered" unicode="&#xb7;" horiz-adv-x="224" 
d="M62 336h100v-136h-100v136z" />
    <glyph glyph-name="cedilla" unicode="&#xb8;" 
d="M220 0h74l-40 -142h-100z" />
    <glyph glyph-name="uni00B9" unicode="&#xb9;" horiz-adv-x="278" 
d="M116 788h-2q-1 -1 -7 -6.5t-18.5 -13t-30.5 -14.5l-28 56q32 13 58 34.5t35 45.5h75v-407h-82v305z" />
    <glyph glyph-name="ordmasculine" unicode="&#xba;" horiz-adv-x="336" 
d="M96.5 381q-30.5 21 -46.5 59.5t-16 90.5t16 90.5t46.5 59.5t71.5 21t71.5 -21t46.5 -59.5t16 -90.5t-16 -90.5t-46.5 -59.5t-71.5 -21t-71.5 21zM223 531q0 115 -55 115q-27 0 -41 -28.5t-14 -86.5t14 -86.5t41 -28.5q55 0 55 115zM38 306h260v-49h-260v49z" />
    <glyph glyph-name="guillemotright" unicode="&#xbb;" horiz-adv-x="382" 
d="M73 154.5q22 60.5 41 90.5v2q-19 30 -41 90.5t-31 106.5l70 19q10 -50 33.5 -112.5t50.5 -104.5q-27 -42 -50.5 -104.5t-33.5 -112.5l-70 19q9 46 31 106.5zM231 154.5q22 60.5 41 90.5v2q-19 30 -41 90.5t-31 106.5l70 19q10 -50 33.5 -112.5t50.5 -104.5
q-27 -42 -50.5 -104.5t-33.5 -112.5l-70 19q9 46 31 106.5z" />
    <glyph glyph-name="onequarter" unicode="&#xbc;" horiz-adv-x="710" 
d="M442 688h72l-302 -689h-72zM116 588h-2q-1 -1 -7 -6.5t-18.5 -13t-30.5 -14.5l-28 56q32 13 58 34.5t35 45.5h75v-407h-82v305zM542 80h-164v69l151 259h95v-262h50v-66h-50v-80h-82v80zM545 306.5q2 21.5 3 27.5h-2q-2 -6 -11.5 -26.5t-22.5 -43.5l-44 -76
q-10 -17 -17 -28t-9 -14v-2q3 0 12.5 0.5t23.5 0.5h65v119q0 21 2 42.5z" />
    <glyph glyph-name="onehalf" unicode="&#xbd;" horiz-adv-x="710" 
d="M442 688h72l-302 -689h-72zM116 588h-2q-1 -1 -7 -6.5t-18.5 -13t-30.5 -14.5l-28 56q32 13 58 34.5t35 45.5h75v-407h-82v305zM453 128q15 24 32.5 42t21.5 22l15 16q6 6 25 26t26.5 36t7.5 34q0 25 -11.5 39t-33.5 14q-46 0 -46 -61q0 -15 2.5 -25.5t3.5 -13.5l-74 10
q-1 3 -3.5 13.5t-2.5 26.5q0 49 32 79t88 30q37 0 65.5 -14t43.5 -39t15 -58q0 -37 -16.5 -63.5t-33.5 -43.5t-22 -23l-15 -16q-3 -3 -19.5 -20t-29 -36t-12.5 -32v-2h156v-69h-249q0 74 34 128z" />
    <glyph glyph-name="threequarters" unicode="&#xbe;" horiz-adv-x="710" 
d="M474 688h72l-302 -689h-72zM251.5 471q22.5 -23 22.5 -73q0 -38 -16 -66.5t-45 -44t-68 -15.5q-38 0 -65.5 14.5t-41.5 39.5t-14 57q0 10 1 17t2 9l72 15q-1 -2 -2 -8.5t-1 -19.5q0 -34 12 -49.5t35 -15.5q24 0 37.5 16.5t13.5 52.5q0 72 -57 72h-19v57h18q48 0 48 59
q0 27 -10.5 41.5t-31.5 14.5t-32 -14t-11 -39q0 -11 1.5 -19t2.5 -10l-68 10q-1 2 -2.5 11t-1.5 20q0 27 12.5 49t37.5 35t62 13t64 -13.5t41 -38t14 -56.5q0 -42 -19.5 -62t-39.5 -28v-2q26 -6 48.5 -29zM542 80h-164v69l151 259h95v-262h50v-66h-50v-80h-82v80zM545 306.5
q2 21.5 3 27.5h-2q-2 -6 -11.5 -26.5t-22.5 -43.5l-44 -76q-10 -17 -17 -28t-9 -14v-2q3 0 12.5 0.5t23.5 0.5h65v119q0 21 2 42.5z" />
    <glyph glyph-name="questiondown" unicode="&#xbf;" horiz-adv-x="420" 
d="M170 494h100v-136h-100v136zM368.5 -15q3.5 -17 3.5 -38q0 -41 -17.5 -75.5t-53.5 -56t-90 -21.5t-91 22t-54.5 58.5t-17.5 82.5q0 87 33 125.5t34 39.5l13 17q31 41 41.5 66.5t11.5 47.5l1 27h76q1 -6 2 -22t1 -33q-1 -30 -10.5 -50.5t-29.5 -49.5l-37 -53
q-19 -28 -30 -54.5t-11 -60.5q0 -41 17.5 -63t51.5 -22q35 0 53.5 24t18.5 64q0 19 -3.5 38t-4.5 25l87 -16q2 -5 5.5 -22z" />
    <glyph glyph-name="Agrave" unicode="&#xc0;" horiz-adv-x="480" 
d="M333 177h-190l-41 -177h-100l172 688h132l172 -688h-104zM242.5 580.5q-2.5 18.5 -3.5 23.5h-2q-1 -5 -3.5 -23t-7.5 -41l-63 -275h150l-63 275q-5 22 -7.5 40.5zM128 894h100l52 -136h-74z" />
    <glyph glyph-name="Aacute" unicode="&#xc1;" horiz-adv-x="480" 
d="M333 177h-190l-41 -177h-100l172 688h132l172 -688h-104zM242.5 580.5q-2.5 18.5 -3.5 23.5h-2q-1 -5 -3.5 -23t-7.5 -41l-63 -275h150l-63 275q-5 22 -7.5 40.5zM252 894h100l-78 -136h-74z" />
    <glyph glyph-name="Acircumflex" unicode="&#xc2;" horiz-adv-x="480" 
d="M333 177h-190l-41 -177h-100l172 688h132l172 -688h-104zM242.5 580.5q-2.5 18.5 -3.5 23.5h-2q-1 -5 -3.5 -23t-7.5 -41l-63 -275h150l-63 275q-5 22 -7.5 40.5zM241 838h-2l-41 -80h-62l53 136h102l53 -136h-62z" />
    <glyph glyph-name="Atilde" unicode="&#xc3;" horiz-adv-x="480" 
d="M333 177h-190l-41 -177h-100l172 688h132l172 -688h-104zM242.5 580.5q-2.5 18.5 -3.5 23.5h-2q-1 -5 -3.5 -23t-7.5 -41l-63 -275h150l-63 275q-5 22 -7.5 40.5zM343 785.5q-21 -24.5 -56 -24.5q-26 0 -39 9.5t-22 22.5l-4 6q-5 9 -11.5 15t-16.5 6q-26 0 -34 -50
l-48 14q4 58 25 82.5t56 24.5q26 0 39 -9.5t22 -22.5l4 -6q5 -9 11.5 -15t16.5 -6q26 0 34 50l48 -14q-4 -58 -25 -82.5z" />
    <glyph glyph-name="Adieresis" unicode="&#xc4;" horiz-adv-x="480" 
d="M333 177h-190l-41 -177h-100l172 688h132l172 -688h-104zM242.5 580.5q-2.5 18.5 -3.5 23.5h-2q-1 -5 -3.5 -23t-7.5 -41l-63 -275h150l-63 275q-5 22 -7.5 40.5zM138 894h72v-136h-72v136zM270 894h72v-136h-72v136z" />
    <glyph glyph-name="Aring" unicode="&#xc5;" horiz-adv-x="480" 
d="M333 177h-190l-41 -177h-100l172 688h132l172 -688h-104zM242.5 580.5q-2.5 18.5 -3.5 23.5h-2q-1 -5 -3.5 -23t-7.5 -41l-63 -275h150l-63 275q-5 22 -7.5 40.5zM307.5 761q-26.5 -23 -67.5 -23t-67.5 23t-26.5 65t26.5 65t67.5 23t67.5 -23t26.5 -65t-26.5 -65z
M269 791q11 13 11 35t-11 35t-29 13t-29 -13t-11 -35t11 -35t29 -13t29 13z" />
    <glyph glyph-name="AE" unicode="&#xc6;" horiz-adv-x="720" 
d="M352 177h-195l-79 -177h-102l320 688h391l-13 -86h-222v-185h197v-86h-197v-245h232l12 -86h-344v177zM353 584q1 25 1 32h-2q-4 -9 -15 -35t-25 -59l-115 -257h155v257q0 37 1 62z" />
    <glyph glyph-name="Ccedilla" unicode="&#xc7;" horiz-adv-x="514" 
d="M231 -8q-57 9 -100.5 49.5t-68 116.5t-24.5 186q0 114 28 193.5t81.5 121t130.5 41.5q72 0 116.5 -34t63.5 -84t19 -102l-92 -28q0 75 -24.5 120.5t-82.5 45.5q-136 0 -136 -274q0 -142 34 -207t98 -65q58 0 84 49t26 137l94 -26q0 -61 -18 -113t-56.5 -86.5t-95.5 -41.5
l-36 -145h-100z" />
    <glyph glyph-name="Egrave" unicode="&#xc8;" horiz-adv-x="446" 
d="M68 688h345l-13 -86h-232v-185h207v-86h-207v-245h242l12 -86h-354v688zM138 894h100l52 -136h-74z" />
    <glyph glyph-name="Eacute" unicode="&#xc9;" horiz-adv-x="446" 
d="M68 688h345l-13 -86h-232v-185h207v-86h-207v-245h242l12 -86h-354v688zM250 894h100l-78 -136h-74z" />
    <glyph glyph-name="Ecircumflex" unicode="&#xca;" horiz-adv-x="446" 
d="M68 688h345l-13 -86h-232v-185h207v-86h-207v-245h242l12 -86h-354v688zM245 838h-2l-41 -80h-62l53 136h102l53 -136h-62z" />
    <glyph glyph-name="Edieresis" unicode="&#xcb;" horiz-adv-x="446" 
d="M68 688h345l-13 -86h-232v-185h207v-86h-207v-245h242l12 -86h-354v688zM144 894h72v-136h-72v136zM276 894h72v-136h-72v136z" />
    <glyph glyph-name="Igrave" unicode="&#xcc;" horiz-adv-x="240" 
d="M70 688h100v-688h-100v688zM10 894h100l52 -136h-74z" />
    <glyph glyph-name="Iacute" unicode="&#xcd;" horiz-adv-x="240" 
d="M70 688h100v-688h-100v688zM130 894h100l-78 -136h-74z" />
    <glyph glyph-name="Icircumflex" unicode="&#xce;" horiz-adv-x="240" 
d="M70 688h100v-688h-100v688zM121 838h-2l-41 -80h-62l53 136h102l53 -136h-62z" />
    <glyph glyph-name="Idieresis" unicode="&#xcf;" horiz-adv-x="240" 
d="M70 688h100v-688h-100v688zM18 894h72v-136h-72v136zM150 894h72v-136h-72v136z" />
    <glyph glyph-name="Eth" unicode="&#xd0;" horiz-adv-x="548" 
d="M68 332h-52v84h52v272h176q143 0 204.5 -88.5t61.5 -255.5t-61.5 -255.5t-204.5 -88.5h-176v332zM339 110.5q37 26.5 52 82t15 151.5t-15 151.5t-52 82t-105 26.5h-66v-188h116v-84h-116v-248h66q68 0 105 26.5z" />
    <glyph glyph-name="Ntilde" unicode="&#xd1;" horiz-adv-x="558" 
d="M222 374q-18 44 -38 104.5t-26 79.5h-2q1 -21 2.5 -81.5t1.5 -126.5v-350h-92v688h130l150 -374q18 -44 34.5 -98.5t21.5 -71.5h2q-1 21 -4.5 88.5t-3.5 117.5v338h92v-688h-118zM382 785.5q-21 -24.5 -56 -24.5q-26 0 -39 9.5t-22 22.5l-4 6q-5 9 -11.5 15t-16.5 6
q-26 0 -34 -50l-48 14q4 58 25 82.5t56 24.5q26 0 39 -9.5t22 -22.5l4 -6q5 -9 11.5 -15t16.5 -6q26 0 34 50l48 -14q-4 -58 -25 -82.5z" />
    <glyph glyph-name="Ograve" unicode="&#xd2;" horiz-adv-x="552" 
d="M145 31.5q-53 43.5 -80 123.5t-27 189t27 189t80 123.5t131 43.5t131 -43.5t80 -123.5t27 -189t-27 -189t-80 -123.5t-131 -43.5t-131 43.5zM410 344q0 274 -134 274t-134 -274t134 -274t134 274zM166 894h100l52 -136h-74z" />
    <glyph glyph-name="Oacute" unicode="&#xd3;" horiz-adv-x="552" 
d="M145 31.5q-53 43.5 -80 123.5t-27 189t27 189t80 123.5t131 43.5t131 -43.5t80 -123.5t27 -189t-27 -189t-80 -123.5t-131 -43.5t-131 43.5zM410 344q0 274 -134 274t-134 -274t134 -274t134 274zM284 894h100l-78 -136h-74z" />
    <glyph glyph-name="Ocircumflex" unicode="&#xd4;" horiz-adv-x="552" 
d="M145 31.5q-53 43.5 -80 123.5t-27 189t27 189t80 123.5t131 43.5t131 -43.5t80 -123.5t27 -189t-27 -189t-80 -123.5t-131 -43.5t-131 43.5zM410 344q0 274 -134 274t-134 -274t134 -274t134 274zM277 838h-2l-41 -80h-62l53 136h102l53 -136h-62z" />
    <glyph glyph-name="Otilde" unicode="&#xd5;" horiz-adv-x="552" 
d="M145 31.5q-53 43.5 -80 123.5t-27 189t27 189t80 123.5t131 43.5t131 -43.5t80 -123.5t27 -189t-27 -189t-80 -123.5t-131 -43.5t-131 43.5zM410 344q0 274 -134 274t-134 -274t134 -274t134 274zM379 785.5q-21 -24.5 -56 -24.5q-26 0 -39 9.5t-22 22.5l-4 6
q-5 9 -11.5 15t-16.5 6q-26 0 -34 -50l-48 14q4 58 25 82.5t56 24.5q26 0 39 -9.5t22 -22.5l4 -6q5 -9 11.5 -15t16.5 -6q26 0 34 50l48 -14q-4 -58 -25 -82.5z" />
    <glyph glyph-name="Odieresis" unicode="&#xd6;" horiz-adv-x="552" 
d="M145 31.5q-53 43.5 -80 123.5t-27 189t27 189t80 123.5t131 43.5t131 -43.5t80 -123.5t27 -189t-27 -189t-80 -123.5t-131 -43.5t-131 43.5zM410 344q0 274 -134 274t-134 -274t134 -274t134 274zM174 894h72v-136h-72v136zM306 894h72v-136h-72v136z" />
    <glyph glyph-name="multiply" unicode="&#xd7;" 
d="M113 116l-48 48l113 112l-113 112l48 48l111 -113l111 113l48 -48l-113 -112l113 -112l-48 -48l-111 112z" />
    <glyph glyph-name="Oslash" unicode="&#xd8;" horiz-adv-x="556" 
d="M88 106q-48 90 -48 238q0 109 27 189t80 123.5t131 43.5q86 0 144 -56l35 56l59 -40l-48 -78q24 -45 36 -105t12 -133q0 -109 -27 -189t-80 -123.5t-131 -43.5q-86 0 -144 56l-35 -56l-59 40zM278 618q-134 0 -134 -274q0 -72 10 -132h2l215 350q-33 56 -93 56zM185 126
q33 -56 93 -56q134 0 134 274q0 72 -10 132h-2z" />
    <glyph glyph-name="Ugrave" unicode="&#xd9;" horiz-adv-x="558" 
d="M490 688v-456q0 -56 -8.5 -97.5t-27.5 -70.5q-49 -76 -175 -76t-175 76q-19 29 -27.5 70.5t-8.5 97.5v456h100v-474q0 -32 4 -54.5t15 -39.5q12 -20 34 -31t58 -11t58 11t34 31q11 17 15 39.5t4 54.5v474h100zM168 894h100l52 -136h-74z" />
    <glyph glyph-name="Uacute" unicode="&#xda;" horiz-adv-x="558" 
d="M490 688v-456q0 -56 -8.5 -97.5t-27.5 -70.5q-49 -76 -175 -76t-175 76q-19 29 -27.5 70.5t-8.5 97.5v456h100v-474q0 -32 4 -54.5t15 -39.5q12 -20 34 -31t58 -11t58 11t34 31q11 17 15 39.5t4 54.5v474h100zM288 894h100l-78 -136h-74z" />
    <glyph glyph-name="Ucircumflex" unicode="&#xdb;" horiz-adv-x="558" 
d="M490 688v-456q0 -56 -8.5 -97.5t-27.5 -70.5q-49 -76 -175 -76t-175 76q-19 29 -27.5 70.5t-8.5 97.5v456h100v-474q0 -32 4 -54.5t15 -39.5q12 -20 34 -31t58 -11t58 11t34 31q11 17 15 39.5t4 54.5v474h100zM280 838h-2l-41 -80h-62l53 136h102l53 -136h-62z" />
    <glyph glyph-name="Udieresis" unicode="&#xdc;" horiz-adv-x="558" 
d="M490 688v-456q0 -56 -8.5 -97.5t-27.5 -70.5q-49 -76 -175 -76t-175 76q-19 29 -27.5 70.5t-8.5 97.5v456h100v-474q0 -32 4 -54.5t15 -39.5q12 -20 34 -31t58 -11t58 11t34 31q11 17 15 39.5t4 54.5v474h100zM177 894h72v-136h-72v136zM309 894h72v-136h-72v136z" />
    <glyph glyph-name="Yacute" unicode="&#xdd;" horiz-adv-x="454" 
d="M177 300l-169 388h104l62 -152q17 -43 33.5 -87t20.5 -57h2q4 13 20.5 57.5t33.5 86.5l62 152h100l-169 -388v-300h-100v300zM240 894h100l-78 -136h-74z" />
    <glyph glyph-name="Thorn" unicode="&#xde;" horiz-adv-x="492" 
d="M68 688h100v-130h90q99 0 150.5 -49t51.5 -147t-51.5 -147t-150.5 -49h-90v-166h-100v688zM304.5 257.5q25.5 9.5 39.5 34t14 70.5t-14 70.5t-39.5 34t-66.5 9.5h-71v-228h71q41 0 66.5 9.5z" />
    <glyph glyph-name="germandbls" unicode="&#xdf;" horiz-adv-x="472" 
d="M64 532q0 88 38 130q18 20 51.5 36t82.5 16q40 0 75.5 -16t58.5 -50t23 -86q0 -49 -16 -77t-36.5 -40.5t-20.5 -9.5v-2q22 -5 47.5 -25t46 -66.5t20.5 -121.5q0 -80 -21.5 -132t-57.5 -76t-81 -24q-29 0 -50 9t-32.5 19t-11.5 12l40 62q1 -2 6.5 -6.5t15.5 -9t22 -4.5
q17 0 32.5 13t26.5 47.5t11 93.5q0 91 -27 130.5t-77 39.5h-20v72h20q34 0 52 22t18 68q0 44 -19 65t-49 21q-42 0 -60 -36q-6 -12 -8 -29t-2 -53v-524h-98v532z" />
    <glyph glyph-name="agrave" unicode="&#xe0;" horiz-adv-x="418" 
d="M399 2.5q-8 -4.5 -23 -8.5t-35 -4q-40 0 -58.5 18t-20.5 46h-2q-3 -11 -13.5 -26t-32 -27.5t-54.5 -12.5q-38 0 -67 18t-45 51.5t-16 80.5q0 45 14 74t32 44t40 26q43 21 117 44l25 8v42q0 34 -15 49t-46 15t-46 -14.5t-15 -47.5q0 -11 1 -19.5t2 -10.5l-88 14
q-1 2 -2 10t-1 20q0 55 42 84.5t113 29.5q58 0 88 -16.5t44 -37.5q11 -16 16 -40t5 -76v-242q0 -28 21 -28q6 0 12.5 1.5t8.5 2.5h2l7 -61q-2 -2 -10 -6.5zM259 267l-21 -7q-16 -5 -35 -13t-29 -14q-17 -10 -30.5 -29t-13.5 -58q0 -40 17 -60t47 -20t48.5 20.5t18.5 61.5
v119h-2zM94 700h100l52 -136h-74z" />
    <glyph glyph-name="aacute" unicode="&#xe1;" horiz-adv-x="418" 
d="M399 2.5q-8 -4.5 -23 -8.5t-35 -4q-40 0 -58.5 18t-20.5 46h-2q-3 -11 -13.5 -26t-32 -27.5t-54.5 -12.5q-38 0 -67 18t-45 51.5t-16 80.5q0 45 14 74t32 44t40 26q43 21 117 44l25 8v42q0 34 -15 49t-46 15t-46 -14.5t-15 -47.5q0 -11 1 -19.5t2 -10.5l-88 14
q-1 2 -2 10t-1 20q0 55 42 84.5t113 29.5q58 0 88 -16.5t44 -37.5q11 -16 16 -40t5 -76v-242q0 -28 21 -28q6 0 12.5 1.5t8.5 2.5h2l7 -61q-2 -2 -10 -6.5zM259 267l-21 -7q-16 -5 -35 -13t-29 -14q-17 -10 -30.5 -29t-13.5 -58q0 -40 17 -60t47 -20t48.5 20.5t18.5 61.5
v119h-2zM208 700h100l-78 -136h-74z" />
    <glyph glyph-name="acircumflex" unicode="&#xe2;" horiz-adv-x="418" 
d="M399 2.5q-8 -4.5 -23 -8.5t-35 -4q-40 0 -58.5 18t-20.5 46h-2q-3 -11 -13.5 -26t-32 -27.5t-54.5 -12.5q-38 0 -67 18t-45 51.5t-16 80.5q0 45 14 74t32 44t40 26q43 21 117 44l25 8v42q0 34 -15 49t-46 15t-46 -14.5t-15 -47.5q0 -11 1 -19.5t2 -10.5l-88 14
q-1 2 -2 10t-1 20q0 55 42 84.5t113 29.5q58 0 88 -16.5t44 -37.5q11 -16 16 -40t5 -76v-242q0 -28 21 -28q6 0 12.5 1.5t8.5 2.5h2l7 -61q-2 -2 -10 -6.5zM259 267l-21 -7q-16 -5 -35 -13t-29 -14q-17 -10 -30.5 -29t-13.5 -58q0 -40 17 -60t47 -20t48.5 20.5t18.5 61.5
v119h-2zM206 644h-2l-41 -80h-62l53 136h102l53 -136h-62z" />
    <glyph glyph-name="atilde" unicode="&#xe3;" horiz-adv-x="418" 
d="M399 2.5q-8 -4.5 -23 -8.5t-35 -4q-40 0 -58.5 18t-20.5 46h-2q-3 -11 -13.5 -26t-32 -27.5t-54.5 -12.5q-38 0 -67 18t-45 51.5t-16 80.5q0 45 14 74t32 44t40 26q43 21 117 44l25 8v42q0 34 -15 49t-46 15t-46 -14.5t-15 -47.5q0 -11 1 -19.5t2 -10.5l-88 14
q-1 2 -2 10t-1 20q0 55 42 84.5t113 29.5q58 0 88 -16.5t44 -37.5q11 -16 16 -40t5 -76v-242q0 -28 21 -28q6 0 12.5 1.5t8.5 2.5h2l7 -61q-2 -2 -10 -6.5zM259 267l-21 -7q-16 -5 -35 -13t-29 -14q-17 -10 -30.5 -29t-13.5 -58q0 -40 17 -60t47 -20t48.5 20.5t18.5 61.5
v119h-2zM310 591.5q-21 -24.5 -56 -24.5q-26 0 -39 9.5t-22 22.5l-4 6q-5 9 -11.5 15t-16.5 6q-26 0 -34 -50l-48 14q4 58 25 82.5t56 24.5q26 0 39 -9.5t22 -22.5l4 -6q5 -9 11.5 -15t16.5 -6q26 0 34 50l48 -14q-4 -58 -25 -82.5z" />
    <glyph glyph-name="adieresis" unicode="&#xe4;" horiz-adv-x="418" 
d="M399 2.5q-8 -4.5 -23 -8.5t-35 -4q-40 0 -58.5 18t-20.5 46h-2q-3 -11 -13.5 -26t-32 -27.5t-54.5 -12.5q-38 0 -67 18t-45 51.5t-16 80.5q0 45 14 74t32 44t40 26q43 21 117 44l25 8v42q0 34 -15 49t-46 15t-46 -14.5t-15 -47.5q0 -11 1 -19.5t2 -10.5l-88 14
q-1 2 -2 10t-1 20q0 55 42 84.5t113 29.5q58 0 88 -16.5t44 -37.5q11 -16 16 -40t5 -76v-242q0 -28 21 -28q6 0 12.5 1.5t8.5 2.5h2l7 -61q-2 -2 -10 -6.5zM259 267l-21 -7q-16 -5 -35 -13t-29 -14q-17 -10 -30.5 -29t-13.5 -58q0 -40 17 -60t47 -20t48.5 20.5t18.5 61.5
v119h-2zM103 700h72v-136h-72v136zM235 700h72v-136h-72v136z" />
    <glyph glyph-name="aring" unicode="&#xe5;" horiz-adv-x="418" 
d="M399 2.5q-8 -4.5 -23 -8.5t-35 -4q-40 0 -58.5 18t-20.5 46h-2q-3 -11 -13.5 -26t-32 -27.5t-54.5 -12.5q-38 0 -67 18t-45 51.5t-16 80.5q0 45 14 74t32 44t40 26q43 21 117 44l25 8v42q0 34 -15 49t-46 15t-46 -14.5t-15 -47.5q0 -11 1 -19.5t2 -10.5l-88 14
q-1 2 -2 10t-1 20q0 55 42 84.5t113 29.5q58 0 88 -16.5t44 -37.5q11 -16 16 -40t5 -76v-242q0 -28 21 -28q6 0 12.5 1.5t8.5 2.5h2l7 -61q-2 -2 -10 -6.5zM259 267l-21 -7q-16 -5 -35 -13t-29 -14q-17 -10 -30.5 -29t-13.5 -58q0 -40 17 -60t47 -20t48.5 20.5t18.5 61.5
v119h-2zM272.5 567q-26.5 -23 -67.5 -23t-67.5 23t-26.5 65t26.5 65t67.5 23t67.5 -23t26.5 -65t-26.5 -65zM234 597q11 13 11 35t-11 35t-29 13t-29 -13t-11 -35t11 -35t29 -13t29 13z" />
    <glyph glyph-name="ae" unicode="&#xe6;" horiz-adv-x="640" 
d="M356 218q0 -157 86 -157q38 0 57.5 28t21.5 72l83 -21q-1 -35 -17.5 -70t-52.5 -58.5t-92 -23.5q-51 0 -83.5 18.5t-48.5 40t-16 25.5h-2q-6 -20 -22.5 -39t-44.5 -32t-65 -13q-39 0 -68 18t-45.5 51.5t-16.5 80.5q0 45 14 74t32 44t40 26q43 21 117 44l25 8v42
q0 34 -15 49t-46 15t-46 -14.5t-15 -47.5q0 -11 1 -19.5t2 -10.5l-88 14q-1 2 -2 10t-1 20q0 55 42 84.5t113 29.5q40 0 67 -9t40.5 -21t15.5 -22h2q0 3 11.5 16t37 24.5t65.5 11.5q83 0 125.5 -63t42.5 -183v-30h-254v-12zM497.5 401.5q-15.5 34.5 -56.5 34.5
q-42 0 -62.5 -36t-22.5 -98h157v2q0 63 -15.5 97.5zM257 267l-21 -7q-16 -5 -35 -13t-29 -14q-17 -10 -30.5 -29t-13.5 -58q0 -40 17 -60t47 -20t48.5 20.5t18.5 61.5v119h-2z" />
    <glyph glyph-name="ccedilla" unicode="&#xe7;" horiz-adv-x="414" 
d="M177 -8q-41 8 -73 37t-51 82.5t-19 132.5q0 82 22 141t64.5 90t101.5 31q56 0 91.5 -26t51 -64t15.5 -76l-86 -22q0 50 -16.5 82t-55.5 32q-88 0 -88 -188q0 -96 21 -139t63 -43q74 0 74 126l90 -20q0 -45 -15 -82.5t-44 -62.5t-71 -32l-28 -133h-100z" />
    <glyph glyph-name="egrave" unicode="&#xe8;" horiz-adv-x="418" 
d="M132 218q0 -157 86 -157q38 0 57.5 28t21.5 72l83 -21q-1 -35 -17.5 -70t-52.5 -58.5t-92 -23.5q-89 0 -136.5 64.5t-47.5 189.5q0 86 22.5 145.5t63.5 89t98 29.5q83 0 125.5 -63t42.5 -183v-30h-254v-12zM273.5 401.5q-15.5 34.5 -56.5 34.5q-42 0 -62.5 -36t-22.5 -98
h157v2q0 63 -15.5 97.5zM109 700h100l52 -136h-74z" />
    <glyph glyph-name="eacute" unicode="&#xe9;" horiz-adv-x="418" 
d="M132 218q0 -157 86 -157q38 0 57.5 28t21.5 72l83 -21q-1 -35 -17.5 -70t-52.5 -58.5t-92 -23.5q-89 0 -136.5 64.5t-47.5 189.5q0 86 22.5 145.5t63.5 89t98 29.5q83 0 125.5 -63t42.5 -183v-30h-254v-12zM273.5 401.5q-15.5 34.5 -56.5 34.5q-42 0 -62.5 -36t-22.5 -98
h157v2q0 63 -15.5 97.5zM224 700h100l-78 -136h-74z" />
    <glyph glyph-name="ecircumflex" unicode="&#xea;" horiz-adv-x="418" 
d="M132 218q0 -157 86 -157q38 0 57.5 28t21.5 72l83 -21q-1 -35 -17.5 -70t-52.5 -58.5t-92 -23.5q-89 0 -136.5 64.5t-47.5 189.5q0 86 22.5 145.5t63.5 89t98 29.5q83 0 125.5 -63t42.5 -183v-30h-254v-12zM273.5 401.5q-15.5 34.5 -56.5 34.5q-42 0 -62.5 -36t-22.5 -98
h157v2q0 63 -15.5 97.5zM219 644h-2l-41 -80h-62l53 136h102l53 -136h-62z" />
    <glyph glyph-name="edieresis" unicode="&#xeb;" horiz-adv-x="418" 
d="M132 218q0 -157 86 -157q38 0 57.5 28t21.5 72l83 -21q-1 -35 -17.5 -70t-52.5 -58.5t-92 -23.5q-89 0 -136.5 64.5t-47.5 189.5q0 86 22.5 145.5t63.5 89t98 29.5q83 0 125.5 -63t42.5 -183v-30h-254v-12zM273.5 401.5q-15.5 34.5 -56.5 34.5q-42 0 -62.5 -36t-22.5 -98
h157v2q0 63 -15.5 97.5zM116 700h72v-136h-72v136zM248 700h72v-136h-72v136z" />
    <glyph glyph-name="igrave" unicode="&#xec;" horiz-adv-x="226" 
d="M64 494h98v-494h-98v494zM6 700h100l52 -136h-74z" />
    <glyph glyph-name="iacute" unicode="&#xed;" horiz-adv-x="226" 
d="M64 494h98v-494h-98v494zM120 700h100l-78 -136h-74z" />
    <glyph glyph-name="icircumflex" unicode="&#xee;" horiz-adv-x="226" 
d="M64 494h98v-494h-98v494zM114 644h-2l-41 -80h-62l53 136h102l53 -136h-62z" />
    <glyph glyph-name="idieresis" unicode="&#xef;" horiz-adv-x="226" 
d="M64 494h98v-494h-98v494zM11 700h72v-136h-72v136zM143 700h72v-136h-72v136z" />
    <glyph glyph-name="eth" unicode="&#xf0;" horiz-adv-x="442" 
d="M268.5 468q-7.5 19 -20.5 42q-11 19 -19.5 29.5t-26.5 28.5l-90 -52l-29 51l76 45q-13 12 -35 25t-39 21v2l65 44q15 -6 39.5 -22t38.5 -29l88 51l29 -50l-73 -44q58 -67 96 -153t38 -203q0 -84 -22 -144t-64 -91t-100 -31q-59 0 -101 31t-63.5 86.5t-21.5 128.5
q0 72 21 126.5t58 84t85 29.5q24 0 41.5 -6.5t26.5 -14.5t9 -9h2q-1 5 -8.5 24zM284.5 107.5q20.5 45.5 20.5 126.5t-20.5 125.5t-64.5 44.5t-65 -44.5t-21 -125.5t21 -126.5t65 -45.5t64.5 45.5z" />
    <glyph glyph-name="ntilde" unicode="&#xf1;" horiz-adv-x="470" 
d="M310 334q0 27 -4 46t-17 31.5t-39 12.5q-42 0 -65 -34.5t-23 -93.5v-296h-98v494h96v-6l-1 -58h2q13 28 44.5 52t82.5 24q120 0 120 -158v-348h-98v334zM344 591.5q-21 -24.5 -56 -24.5q-26 0 -39 9.5t-22 22.5l-4 6q-5 9 -11.5 15t-16.5 6q-26 0 -34 -50l-48 14
q4 58 25 82.5t56 24.5q26 0 39 -9.5t22 -22.5l4 -6q5 -9 11.5 -15t16.5 -6q26 0 34 50l48 -14q-4 -58 -25 -82.5z" />
    <glyph glyph-name="ograve" unicode="&#xf2;" horiz-adv-x="440" 
d="M118.5 19q-41.5 31 -63 89.5t-21.5 138.5t21.5 138.5t63 89.5t101.5 31t101.5 -31t63 -89.5t21.5 -138.5t-21.5 -138.5t-63 -89.5t-101.5 -31t-101.5 31zM286 109.5q20 47.5 20 137.5t-19.5 137.5t-66.5 47.5t-66.5 -47.5t-19.5 -137.5t20 -137.5t66 -47.5t66 47.5z
M110 700h100l52 -136h-74z" />
    <glyph glyph-name="oacute" unicode="&#xf3;" horiz-adv-x="440" 
d="M118.5 19q-41.5 31 -63 89.5t-21.5 138.5t21.5 138.5t63 89.5t101.5 31t101.5 -31t63 -89.5t21.5 -138.5t-21.5 -138.5t-63 -89.5t-101.5 -31t-101.5 31zM286 109.5q20 47.5 20 137.5t-19.5 137.5t-66.5 47.5t-66.5 -47.5t-19.5 -137.5t20 -137.5t66 -47.5t66 47.5z
M230 700h100l-78 -136h-74z" />
    <glyph glyph-name="ocircumflex" unicode="&#xf4;" horiz-adv-x="440" 
d="M118.5 19q-41.5 31 -63 89.5t-21.5 138.5t21.5 138.5t63 89.5t101.5 31t101.5 -31t63 -89.5t21.5 -138.5t-21.5 -138.5t-63 -89.5t-101.5 -31t-101.5 31zM286 109.5q20 47.5 20 137.5t-19.5 137.5t-66.5 47.5t-66.5 -47.5t-19.5 -137.5t20 -137.5t66 -47.5t66 47.5z
M221 644h-2l-41 -80h-62l53 136h102l53 -136h-62z" />
    <glyph glyph-name="otilde" unicode="&#xf5;" horiz-adv-x="440" 
d="M118.5 19q-41.5 31 -63 89.5t-21.5 138.5t21.5 138.5t63 89.5t101.5 31t101.5 -31t63 -89.5t21.5 -138.5t-21.5 -138.5t-63 -89.5t-101.5 -31t-101.5 31zM286 109.5q20 47.5 20 137.5t-19.5 137.5t-66.5 47.5t-66.5 -47.5t-19.5 -137.5t20 -137.5t66 -47.5t66 47.5z
M323 591.5q-21 -24.5 -56 -24.5q-26 0 -39 9.5t-22 22.5l-4 6q-5 9 -11.5 15t-16.5 6q-26 0 -34 -50l-48 14q4 58 25 82.5t56 24.5q26 0 39 -9.5t22 -22.5l4 -6q5 -9 11.5 -15t16.5 -6q26 0 34 50l48 -14q-4 -58 -25 -82.5z" />
    <glyph glyph-name="odieresis" unicode="&#xf6;" horiz-adv-x="440" 
d="M118.5 19q-41.5 31 -63 89.5t-21.5 138.5t21.5 138.5t63 89.5t101.5 31t101.5 -31t63 -89.5t21.5 -138.5t-21.5 -138.5t-63 -89.5t-101.5 -31t-101.5 31zM286 109.5q20 47.5 20 137.5t-19.5 137.5t-66.5 47.5t-66.5 -47.5t-19.5 -137.5t20 -137.5t66 -47.5t66 47.5z
M118 700h72v-136h-72v136zM250 700h72v-136h-72v136z" />
    <glyph glyph-name="divide" unicode="&#xf7;" 
d="M188 504h72v-117h-72v117zM38 309h372v-67h-372v67zM188 164h72v-117h-72v117z" />
    <glyph glyph-name="oslash" unicode="&#xf8;" horiz-adv-x="444" 
d="M72 77q-36 67 -36 170q0 80 21.5 138.5t63 89.5t101.5 31q66 0 112 -41l28 41l46 -36l-36 -53q36 -67 36 -170q0 -80 -21.5 -138.5t-63 -89.5t-101.5 -31q-66 0 -112 41l-28 -41l-46 36zM222 432q-47 0 -67 -47.5t-20 -137.5q0 -28 2 -48t2 -23h2l144 216q-22 40 -63 40z
M159 102q10 -19 26 -29.5t37 -10.5q47 0 67 48t20 137q0 28 -2 48t-2 23h-2z" />
    <glyph glyph-name="ugrave" unicode="&#xf9;" horiz-adv-x="460" 
d="M300 6l1 58h-2q-37 -76 -119 -76q-58 0 -88 38q-16 20 -23 51.5t-7 76.5v340h98v-326q0 -33 3 -52.5t14 -31.5t35 -12q40 0 63 34.5t23 99.5v288h98v-494h-96v6zM121 700h100l52 -136h-74z" />
    <glyph glyph-name="uacute" unicode="&#xfa;" horiz-adv-x="460" 
d="M300 6l1 58h-2q-37 -76 -119 -76q-58 0 -88 38q-16 20 -23 51.5t-7 76.5v340h98v-326q0 -33 3 -52.5t14 -31.5t35 -12q40 0 63 34.5t23 99.5v288h98v-494h-96v6zM239 700h100l-78 -136h-74z" />
    <glyph glyph-name="ucircumflex" unicode="&#xfb;" horiz-adv-x="460" 
d="M300 6l1 58h-2q-37 -76 -119 -76q-58 0 -88 38q-16 20 -23 51.5t-7 76.5v340h98v-326q0 -33 3 -52.5t14 -31.5t35 -12q40 0 63 34.5t23 99.5v288h98v-494h-96v6zM230 644h-2l-41 -80h-62l53 136h102l53 -136h-62z" />
    <glyph glyph-name="udieresis" unicode="&#xfc;" horiz-adv-x="460" 
d="M300 6l1 58h-2q-37 -76 -119 -76q-58 0 -88 38q-16 20 -23 51.5t-7 76.5v340h98v-326q0 -33 3 -52.5t14 -31.5t35 -12q40 0 63 34.5t23 99.5v288h98v-494h-96v6zM127 700h72v-136h-72v136zM259 700h72v-136h-72v136z" />
    <glyph glyph-name="yacute" unicode="&#xfd;" horiz-adv-x="382" 
d="M42 -100q7 -4 19.5 -7t22.5 -3q26 0 40 16q8 9 13 23.5t11 38.5l8 32h-20l-126 494h98l46 -192q10 -41 23 -110.5t17 -91.5h2q4 22 17 91.5t23 110.5l46 192h94l-132 -516q-11 -42 -25 -77t-27 -51q-33 -40 -96 -40q-22 0 -40 5t-28 10t-12 7l24 68h2zM204 700h100
l-78 -136h-74z" />
    <glyph glyph-name="thorn" unicode="&#xfe;" horiz-adv-x="462" 
d="M64 700h98v-212l-1 -50h2q0 3 11.5 20.5t36 32.5t61.5 15q50 0 84.5 -31t52 -88t17.5 -134q0 -82 -19.5 -141.5t-56 -91.5t-86.5 -32q-38 0 -60.5 16t-31.5 33.5t-9 22.5h-2l1 -42v-194h-98v876zM180 108.5q18 -42.5 62 -42.5q45 0 64.5 48.5t19.5 138.5q0 84 -18 130.5
t-62 46.5t-64 -43t-20 -109v-58q0 -69 18 -111.5z" />
    <glyph glyph-name="ydieresis" unicode="&#xff;" horiz-adv-x="382" 
d="M42 -100q7 -4 19.5 -7t22.5 -3q26 0 40 16q8 9 13 23.5t11 38.5l8 32h-20l-126 494h98l46 -192q10 -41 23 -110.5t17 -91.5h2q4 22 17 91.5t23 110.5l46 192h94l-132 -516q-11 -42 -25 -77t-27 -51q-33 -40 -96 -40q-22 0 -40 5t-28 10t-12 7l24 68h2zM92 700h72v-136
h-72v136zM224 700h72v-136h-72v136z" />
    <glyph glyph-name="dotlessi" unicode="&#x131;" horiz-adv-x="226" 
d="M64 494h98v-494h-98v494z" />
    <glyph glyph-name="OE" unicode="&#x152;" horiz-adv-x="746" 
d="M380 24h-2q0 -2 -11.5 -11t-34.5 -17t-58 -8q-76 0 -129 43.5t-80 123.5t-27 189t27 189t80 123.5t129 43.5q35 0 58 -8t34.5 -17t11.5 -11h2v24h333l-13 -86h-220v-185h195v-86h-195v-245h230l12 -86h-342v24zM368.5 567.5q-11.5 18.5 -34.5 34.5t-58 16
q-134 0 -134 -274t134 -274q35 0 58 16t34.5 34.5t11.5 21.5v404q0 3 -11.5 21.5z" />
    <glyph glyph-name="oe" unicode="&#x153;" horiz-adv-x="684" 
d="M400 218q0 -157 86 -157q38 0 57.5 28t21.5 72l83 -21q-1 -35 -17.5 -70t-52.5 -58.5t-92 -23.5q-46 0 -76 15t-44 32t-14 21h-2q-2 -6 -16 -22.5t-43 -31t-73 -14.5q-60 0 -101.5 31t-63 89.5t-21.5 138.5t21.5 138.5t63 89.5t101.5 31q44 0 74 -15t45.5 -32.5
t15.5 -20.5h2q0 3 14.5 20.5t43.5 32.5t73 15q83 0 125.5 -63t42.5 -183v-30h-254v-12zM541.5 401.5q-15.5 34.5 -56.5 34.5q-42 0 -62.5 -36t-22.5 -98h157v2q0 63 -15.5 97.5zM284 109.5q20 47.5 20 137.5t-19.5 137.5t-66.5 47.5t-66.5 -47.5t-19.5 -137.5t20 -137.5
t66 -47.5t66 47.5z" />
    <glyph glyph-name="Scaron" unicode="&#x160;" horiz-adv-x="458" 
d="M120 378q-30 24 -51.5 61.5t-21.5 88.5q0 54 23.5 93t64.5 60t91 21q49 0 88.5 -19.5t64 -55t31.5 -83.5l-78 -38q-9 60 -36.5 87t-68.5 27q-37 0 -59.5 -22t-22.5 -61q0 -37 23 -63t73 -55l42 -24q41 -24 72 -49t52 -65t21 -95q0 -59 -24.5 -104t-69 -70.5t-102.5 -25.5
t-101.5 25.5t-69.5 71.5t-33 107l86 32q8 -80 41 -117t81 -37q41 0 67.5 27.5t26.5 78.5q0 35 -13 59t-32.5 39.5t-50.5 33.5l-42 24q-42 24 -72 48zM122 894h62l41 -80h2l41 80h62l-53 -136h-102z" />
    <glyph glyph-name="scaron" unicode="&#x161;" horiz-adv-x="370" 
d="M95 261.5q-24 16.5 -41.5 45.5t-17.5 70q0 42 19.5 71.5t52.5 44.5t74 15q60 0 98.5 -31t50.5 -87l-73 -29q-9 41 -29 59.5t-47 18.5q-25 0 -40.5 -14.5t-15.5 -38.5t16 -41t56 -37l32 -16q35 -18 60 -37t40.5 -48.5t15.5 -69.5q0 -45 -20 -79t-55.5 -52.5t-82.5 -18.5
q-70 0 -113 40t-51 112l81 22q6 -59 30.5 -81.5t54.5 -22.5q26 0 46 16t20 50q0 33 -19 52.5t-53 36.5l-32 16q-33 17 -57 33.5zM78 700h62l41 -80h2l41 80h62l-53 -136h-102z" />
    <glyph glyph-name="Ydieresis" unicode="&#x178;" horiz-adv-x="454" 
d="M177 300l-169 388h104l62 -152q17 -43 33.5 -87t20.5 -57h2q4 13 20.5 57.5t33.5 86.5l62 152h100l-169 -388v-300h-100v300zM125 894h72v-136h-72v136zM257 894h72v-136h-72v136z" />
    <glyph glyph-name="Zcaron" unicode="&#x17d;" horiz-adv-x="444" 
d="M24 83l240 449q15 29 25 46.5t13 22.5v2q-5 0 -20.5 -0.5t-36.5 -0.5h-211v86h376v-84l-241 -448q-15 -29 -25 -46.5t-13 -22.5v-2q5 0 20.5 0.5t36.5 0.5h232v-86h-396v83zM118 894h62l41 -80h2l41 80h62l-53 -136h-102z" />
    <glyph glyph-name="zcaron" unicode="&#x17e;" horiz-adv-x="350" 
d="M22 66l153 284q12 22 24 42.5t16 27.5v2q-3 0 -16.5 -0.5t-34.5 -0.5h-134v73h290v-67l-153 -283q-12 -23 -23.5 -42.5t-15.5 -26.5v-2l96 1h104v-74h-306v66zM71 700h62l41 -80h2l41 80h62l-53 -136h-102z" />
    <glyph glyph-name="florin" unicode="&#x192;" 
d="M24 -24q4 -4 15 -8.5t24 -4.5q20 0 30 13q12 15 22 72l51 294h-94v67h106l32 184q13 74 48 103q14 12 33 18t40 6q28 0 52 -9t37 -21l-26 -62h-2q-8 8 -20 12.5t-24 4.5q-16 0 -26 -9q-15 -14 -22 -54l-30 -173h106v-67h-117l-55 -314q-12 -72 -39 -104q-30 -37 -84 -37
q-25 0 -48 7.5t-39 19.5l28 62h2z" />
    <glyph glyph-name="circumflex" unicode="&#x2c6;" 
d="M225 644h-2l-41 -80h-62l53 136h102l53 -136h-62z" />
    <glyph glyph-name="caron" unicode="&#x2c7;" 
d="M120 700h62l41 -80h2l41 80h62l-53 -136h-102z" />
    <glyph glyph-name="ring" unicode="&#x2da;" 
d="M291.5 567q-26.5 -23 -67.5 -23t-67.5 23t-26.5 65t26.5 65t67.5 23t67.5 -23t26.5 -65t-26.5 -65zM253 597q11 13 11 35t-11 35t-29 13t-29 -13t-11 -35t11 -35t29 -13t29 13z" />
    <glyph glyph-name="tilde" unicode="&#x2dc;" 
d="M327 591.5q-21 -24.5 -56 -24.5q-26 0 -39 9.5t-22 22.5l-4 6q-5 9 -11.5 15t-16.5 6q-26 0 -34 -50l-48 14q4 58 25 82.5t56 24.5q26 0 39 -9.5t22 -22.5l4 -6q5 -9 11.5 -15t16.5 -6q26 0 34 50l48 -14q-4 -58 -25 -82.5z" />
    <glyph glyph-name="endash" unicode="&#x2013;" 
d="M38 282h372v-65h-372v65z" />
    <glyph glyph-name="emdash" unicode="&#x2014;" horiz-adv-x="756" 
d="M34 282h688v-65h-688v65z" />
    <glyph glyph-name="quoteleft" unicode="&#x2018;" horiz-adv-x="224" 
d="M62 562q0 52 18 85t54 55l34 -42q-22 -15 -33 -36t-11 -56v-18h38v-136h-100v148z" />
    <glyph glyph-name="quoteright" unicode="&#x2019;" horiz-adv-x="224" 
d="M89 478q11 21 11 56v18h-38v136h100v-148q0 -52 -18 -85t-54 -55l-34 42q22 15 33 36z" />
    <glyph glyph-name="quotesinglbase" unicode="&#x201a;" horiz-adv-x="224" 
d="M89 -74q11 21 11 56v18h-38v136h100v-148q0 -52 -18 -85t-54 -55l-34 42q22 15 33 36z" />
    <glyph glyph-name="quotedblleft" unicode="&#x201c;" horiz-adv-x="382" 
d="M62 562q0 52 18 85t54 55l34 -42q-22 -15 -33 -36t-11 -56v-18h38v-136h-100v148zM220 562q0 52 18 85t54 55l34 -42q-22 -15 -33 -36t-11 -56v-18h38v-136h-100v148z" />
    <glyph glyph-name="quotedblright" unicode="&#x201d;" horiz-adv-x="382" 
d="M89 478q11 21 11 56v18h-38v136h100v-148q0 -52 -18 -85t-54 -55l-34 42q22 15 33 36zM247 478q11 21 11 56v18h-38v136h100v-148q0 -52 -18 -85t-54 -55l-34 42q22 15 33 36z" />
    <glyph glyph-name="quotedblbase" unicode="&#x201e;" horiz-adv-x="382" 
d="M89 -74q11 21 11 56v18h-38v136h100v-148q0 -52 -18 -85t-54 -55l-34 42q22 15 33 36zM247 -74q11 21 11 56v18h-38v136h100v-148q0 -52 -18 -85t-54 -55l-34 42q22 15 33 36z" />
    <glyph glyph-name="dagger" unicode="&#x2020;" 
d="M184 188l12 229l-158 -12v81l158 -12l-12 228h80l-12 -228l158 12v-81l-158 12l12 -229l-14 -379h-52z" />
    <glyph glyph-name="daggerdbl" unicode="&#x2021;" 
d="M196 37l-158 -12v81l158 -12l-12 161l12 162l-158 -12v81l158 -12l-12 228h80l-12 -228l158 12v-81l-158 12l12 -162l-12 -161l158 12v-81l-158 12l12 -228h-80z" />
    <glyph glyph-name="bullet" unicode="&#x2022;" 
d="M165 236q-26 16 -41.5 45.5t-15.5 68.5t15.5 68.5t41.5 45.5t59 16t59 -16t41.5 -45.5t15.5 -68.5t-15.5 -68.5t-41.5 -45.5t-59 -16t-59 16z" />
    <glyph glyph-name="ellipsis" unicode="&#x2026;" horiz-adv-x="672" 
d="M62 136h100v-136h-100v136zM286 136h100v-136h-100v136zM510 136h100v-136h-100v136z" />
    <glyph glyph-name="perthousand" unicode="&#x2030;" horiz-adv-x="1006" 
d="M70 329q-34 57 -34 157t34 157t98 57t98 -57t34 -157t-34 -157t-98 -57t-98 57zM470 688h72l-302 -689h-72zM206 371q13 36 13 115t-13 115t-38 36t-38 -36t-13 -115t13 -115t38 -36t38 36zM444 45q-34 57 -34 157t34 157t98 57t98 -57t34 -157t-34 -157t-98 -57t-98 57z
M740 45q-34 57 -34 157t34 157t98 57t98 -57t34 -157t-34 -157t-98 -57t-98 57zM580 87q13 36 13 115t-13 115t-38 36t-38 -36t-13 -115t13 -115t38 -36t38 36zM876 87q13 36 13 115t-13 115t-38 36t-38 -36t-13 -115t13 -115t38 -36t38 36z" />
    <glyph glyph-name="guilsinglleft" unicode="&#x2039;" horiz-adv-x="224" 
d="M78.5 141.5q-23.5 62.5 -50.5 104.5q27 42 50.5 104.5t33.5 112.5l70 -19q-9 -46 -31 -106.5t-41 -90.5v-2q19 -30 41 -90.5t31 -106.5l-70 -19q-10 50 -33.5 112.5z" />
    <glyph glyph-name="guilsinglright" unicode="&#x203a;" horiz-adv-x="224" 
d="M73 154.5q22 60.5 41 90.5v2q-19 30 -41 90.5t-31 106.5l70 19q10 -50 33.5 -112.5t50.5 -104.5q-27 -42 -50.5 -104.5t-33.5 -112.5l-70 19q9 46 31 106.5z" />
    <glyph glyph-name="fraction" unicode="&#x2044;" horiz-adv-x="174" 
d="M202 688h72l-302 -689h-72z" />
    <glyph glyph-name="Euro" unicode="&#x20ac;" 
d="M423 184q1 -7 1 -19q0 -43 -14 -83t-49 -67t-93 -27q-89 0 -131.5 66.5t-50.5 188.5h-50v67h47l-1 43l1 42h-47v67h53q10 113 55.5 175.5t128.5 62.5q52 0 85.5 -23.5t48.5 -59.5t15 -75q0 -11 -1 -19.5t-1 -10.5l-78 -16q0 2 1 8t1 18q0 45 -17.5 76t-54.5 31
q-41 0 -62 -41t-25 -126h125v-67h-130l-1 -40l1 -45h130v-67h-127q3 -86 21 -132.5t64 -46.5q43 0 58.5 36t15.5 79q0 12 -1 19.5t-1 9.5l82 -15q0 -2 1 -9z" />
    <glyph glyph-name="trademark" unicode="&#x2122;" horiz-adv-x="660" 
d="M112 634h-76v54h221l-10 -54h-71v-314h-64v314zM524 565l1 68h-2q0 -2 -2 -17.5t-8 -50.5l-43 -245h-74l-43 245q-6 35 -8 50.5t-2 17.5h-2l1 -68v-245h-58v368h106l36 -224q4 -28 6 -47t3 -24h2q1 5 3 24t6 47l36 224h106v-368h-64v245z" />
    <glyph glyph-name="glyph224" horiz-adv-x="358" 
d="M91 128q15 24 32.5 42t21.5 22l15 16q6 6 25 26t26.5 36t7.5 34q0 25 -11.5 39t-33.5 14q-46 0 -46 -61q0 -15 2.5 -25.5t3.5 -13.5l-74 10q-1 3 -3.5 13.5t-2.5 26.5q0 49 32 79t88 30q37 0 65.5 -14t43.5 -39t15 -58q0 -37 -16.5 -63.5t-33.5 -43.5t-22 -23l-15 -16
q-3 -3 -19.5 -20t-29 -36t-12.5 -32v-2h156v-69h-249q0 74 34 128z" />
    <glyph glyph-name="glyph225" horiz-adv-x="358" 
d="M194 80h-164v69l151 259h95v-262h50v-66h-50v-80h-82v80zM197 306.5q2 21.5 3 27.5h-2q-2 -6 -11.5 -26.5t-22.5 -43.5l-44 -76q-10 -17 -17 -28t-9 -14v-2q3 0 12.5 0.5t23.5 0.5h65v119q0 21 2 42.5z" />
    <glyph glyph-name="glyph226" horiz-adv-x="278" 
d="M116 588h-2q-1 -1 -7 -6.5t-18.5 -13t-30.5 -14.5l-28 56q32 13 58 34.5t35 45.5h75v-407h-82v305z" />
    <glyph glyph-name="glyph227" horiz-adv-x="358" 
d="M281.5 471q22.5 -23 22.5 -73q0 -38 -16 -66.5t-45 -44t-68 -15.5q-38 0 -65.5 14.5t-41.5 39.5t-14 57q0 10 1 17t2 9l72 15q-1 -2 -2 -8.5t-1 -19.5q0 -34 12 -49.5t35 -15.5q24 0 37.5 16.5t13.5 52.5q0 72 -57 72h-19v57h18q48 0 48 59q0 27 -10.5 41.5t-31.5 14.5
t-32 -14t-11 -39q0 -11 1.5 -19t2.5 -10l-68 10q-1 2 -2.5 11t-1.5 20q0 27 12.5 49t37.5 35t62 13t64 -13.5t41 -38t14 -56.5q0 -42 -19.5 -62t-39.5 -28v-2q26 -6 48.5 -29z" />
    <glyph glyph-name="glyph228" 
d="M200 894h100l-78 -136h-74z" />
    <glyph glyph-name="glyph229" 
d="M148 894h100l52 -136h-74z" />
    <glyph glyph-name="glyph230" 
d="M225 838h-2l-41 -80h-62l53 136h102l53 -136h-62z" />
    <glyph glyph-name="glyph231" 
d="M327 785.5q-21 -24.5 -56 -24.5q-26 0 -39 9.5t-22 22.5l-4 6q-5 9 -11.5 15t-16.5 6q-26 0 -34 -50l-48 14q4 58 25 82.5t56 24.5q26 0 39 -9.5t22 -22.5l4 -6q5 -9 11.5 -15t16.5 -6q26 0 34 50l48 -14q-4 -58 -25 -82.5z" />
    <glyph glyph-name="glyph232" 
d="M122 894h72v-136h-72v136zM254 894h72v-136h-72v136z" />
    <glyph glyph-name="glyph233" 
d="M291.5 761q-26.5 -23 -67.5 -23t-67.5 23t-26.5 65t26.5 65t67.5 23t67.5 -23t26.5 -65t-26.5 -65zM253 791q11 13 11 35t-11 35t-29 13t-29 -13t-11 -35t11 -35t29 -13t29 13z" />
    <glyph glyph-name="glyph234" 
d="M120 894h62l41 -80h2l41 80h62l-53 -136h-102z" />
    </font>
</defs>
</svg>
